<svg width="59" height="56" viewBox="0 0 59 56" fill="none" xmlns="http://www.w3.org/2000/svg">
<path opacity="0.85" d="M38.7115 6.60604V4.29865H46.7841V13.5369M29.5044 2L3 27.3463H8.75992V52.6926C8.75992 53.3046 9.00266 53.8915 9.43474 54.3242C9.86681 54.7569 10.4528 55 11.0639 55H23.7357V41.1557C23.738 40.8489 23.8613 40.5555 24.0787 40.3394C24.2962 40.1232 24.5901 40.002 24.8964 40.002H34.1123C34.4171 40.0043 34.7088 40.1265 34.9244 40.3424C35.1399 40.5583 35.262 40.8504 35.2643 41.1557V55H47.9361C48.5472 55 49.1332 54.7569 49.5653 54.3242C49.9973 53.8915 50.2401 53.3046 50.2401 52.6926V27.3463H56L29.5044 2Z" stroke="#FFA205" stroke-width="2" stroke-miterlimit="10"/>
</svg>
