<svg xmlns="http://www.w3.org/2000/svg" viewBox="0 0 329.95 256.61"><defs><style>.cls-1{fill:#848484}.cls-2{fill:#ffa205}</style></defs><g id="Layer_2" data-name="Layer 2"><g id="_00_Master_Layer" data-name="00 Master Layer"><path class="cls-1" d="M.9,256.61a.87.87,0,0,1-.64-.27A.87.87,0,0,1,0,255.7V234a.91.91,0,0,1,.26-.65.9.9,0,0,1,.64-.26H9.27a7.13,7.13,0,0,1,5.24,2.17,7.43,7.43,0,0,1,.28,10.24,7.26,7.26,0,0,1-4.7,2.42l6.63,7.19a.84.84,0,0,1,.23.63.92.92,0,0,1-.28.63.88.88,0,0,1-.63.25.85.85,0,0,1-.66-.3L7.67,248H1.81v7.75a.87.87,0,0,1-.26.64A.88.88,0,0,1,.9,256.61Zm.91-10.47H9.27a5.6,5.6,0,0,0,5.62-5.62,5.43,5.43,0,0,0-1.64-4,5.46,5.46,0,0,0-4-1.65H1.81Z"/><path class="cls-1" d="M56.31,233.08a.92.92,0,0,1,.64.26.91.91,0,0,1,0,1.29.92.92,0,0,1-.64.26H41.38a.91.91,0,1,1,0-1.81Zm0,10.86a.92.92,0,0,1,.64.26.91.91,0,0,1,0,1.29.92.92,0,0,1-.64.26H41.38a.91.91,0,1,1,0-1.81Zm.91,11.76a.84.84,0,0,1-.27.64.89.89,0,0,1-.64.27H41.38a.88.88,0,0,1-.65-.27.87.87,0,0,1-.26-.64.9.9,0,0,1,.26-.64.87.87,0,0,1,.65-.26H56.31a.9.9,0,0,1,.91.9Z"/><path class="cls-2" d="M92.49,256.61a11.77,11.77,0,1,1,8.32-20.09.87.87,0,0,1,.27.64.85.85,0,0,1-.27.64.83.83,0,0,1-.63.27.88.88,0,0,1-.65-.27,10,10,0,1,0-.26,14.33v-6.38H92.05a.91.91,0,1,1,0-1.81h8.13a.86.86,0,0,1,.63.26.87.87,0,0,1,.27.64v7.69a.9.9,0,0,1-.27.64A11.36,11.36,0,0,1,92.49,256.61Z"/><path class="cls-2" d="M140.43,233.08a.93.93,0,0,1,.64.26.91.91,0,0,1,0,1.29.93.93,0,0,1-.64.26H125.49a.88.88,0,0,1-.64-.26.93.93,0,0,1,0-1.29.88.88,0,0,1,.64-.26Zm0,10.86a.93.93,0,0,1,.64.26.91.91,0,0,1,0,1.29.93.93,0,0,1-.64.26H125.49a.88.88,0,0,1-.64-.26.93.93,0,0,1,0-1.29.88.88,0,0,1,.64-.26Zm.91,11.76a.84.84,0,0,1-.27.64.9.9,0,0,1-.64.27H125.49a.85.85,0,0,1-.64-.27.83.83,0,0,1-.26-.64.86.86,0,0,1,.26-.64.84.84,0,0,1,.64-.26h14.94a.89.89,0,0,1,.64.26A.87.87,0,0,1,141.34,255.7Z"/><path class="cls-2" d="M165.75,256.61a.89.89,0,0,1-.65-.27.87.87,0,0,1-.26-.64V234a.82.82,0,0,1,.61-.86.85.85,0,0,1,1,.3l15.12,19.62V234a.89.89,0,0,1,.91-.91.93.93,0,0,1,.64.26.91.91,0,0,1,.26.65V255.7a.84.84,0,0,1-.63.86.81.81,0,0,1-.27.05.9.9,0,0,1-.73-.35l-15.12-19.63V255.7a.9.9,0,0,1-.9.91Z"/><path class="cls-2" d="M222.75,233.08a.92.92,0,0,1,.64.26.93.93,0,0,1,0,1.29.92.92,0,0,1-.64.26H207.81a.88.88,0,0,1-.64-.26.93.93,0,0,1,0-1.29.88.88,0,0,1,.64-.26Zm0,10.86a.92.92,0,0,1,.64.26.93.93,0,0,1,0,1.29.92.92,0,0,1-.64.26H207.81a.88.88,0,0,1-.64-.26.93.93,0,0,1,0-1.29.88.88,0,0,1,.64-.26Zm.9,11.76a.83.83,0,0,1-.26.64.89.89,0,0,1-.64.27H207.81a.85.85,0,0,1-.64-.27.83.83,0,0,1-.26-.64.86.86,0,0,1,.26-.64.84.84,0,0,1,.64-.26h14.94a.88.88,0,0,1,.64.26A.86.86,0,0,1,223.65,255.7Z"/><path class="cls-2" d="M257.81,254.8a4.53,4.53,0,0,0,0-9.05h-4.32a6.34,6.34,0,0,1,0-12.67h4.32a6.35,6.35,0,0,1,6.33,6.34.89.89,0,0,1-.9.9,1,1,0,0,1-.65-.26.9.9,0,0,1-.26-.64,4.51,4.51,0,0,0-4.52-4.53h-4.32a4.53,4.53,0,0,0,0,9.05h4.32a6.34,6.34,0,0,1,0,12.67h-4.32a6.35,6.35,0,0,1-6.33-6.34.91.91,0,1,1,1.81,0,4.56,4.56,0,0,0,4.52,4.53Z"/><path class="cls-2" d="M288.55,256.61a.85.85,0,0,1-.64-.27.87.87,0,0,1-.26-.64V234a.91.91,0,0,1,.26-.65.91.91,0,0,1,1.55.65V255.7a.84.84,0,0,1-.27.64A.85.85,0,0,1,288.55,256.61Z"/><path class="cls-2" d="M323.61,254.8a4.38,4.38,0,0,0,3.21-1.34,4.54,4.54,0,0,0,0-6.38,4.37,4.37,0,0,0-3.21-1.33H319.3a6.34,6.34,0,0,1,0-12.67h4.31a6.35,6.35,0,0,1,6.34,6.34.87.87,0,0,1-.27.64.88.88,0,0,1-.64.26.93.93,0,0,1-.64-.26.87.87,0,0,1-.27-.64,4.49,4.49,0,0,0-4.52-4.53H319.3a4.53,4.53,0,0,0,0,9.05h4.31a6.34,6.34,0,0,1,0,12.67H319.3a6.35,6.35,0,0,1-6.33-6.34.9.9,0,0,1,.26-.64.92.92,0,0,1,1.28,0,.87.87,0,0,1,.27.64,4.56,4.56,0,0,0,4.52,4.53Z"/><path d="M244.09,192.45c-1.53,0-3.05,0-4.58-.13-12.08-.65-24.1-3.78-35.73-6.81l-1.62-.41c-18.8-4.89-37.22-10.61-51.17-15-16-5.08-32.88-10.71-51.7-17.21-4.11-1.42-8.24-2.81-12.37-4.21-16-5.4-32.53-11-48.11-18.11C22.65,123.15,6.16,113.14,6.37,94.84,6.62,73,29.51,60.54,46.22,51.41l1-.56c22-12,43.94-20.73,65.24-25.9A323.23,323.23,0,0,1,177.76,16c19-.65,43.88-.53,67.42,6.13h0a126.74,126.74,0,0,1,35.71,16.19c35.16,23.11,51.24,58.05,43,93.48a80.4,80.4,0,0,1-15.15,31.88C295,181.22,269.41,192.44,244.09,192.45ZM191.54,17.75c-4.81,0-9.41.1-13.71.25A321.61,321.61,0,0,0,113,26.87C91.83,32,70,40.64,48.2,52.58l-1,.57C30.88,62,8.58,74.22,8.35,94.86c-.2,17.13,14.92,26.4,31.28,33.87,15.49,7.07,32,12.65,47.92,18q6.21,2.1,12.38,4.22c18.81,6.49,35.7,12.12,51.65,17.19,13.93,4.43,32.32,10.14,51.08,15l1.61.43c11.54,3,23.47,6.1,35.35,6.74,26.16,1.37,53.33-9.77,67.59-27.86A78.39,78.39,0,0,0,322,131.39c8-34.59-7.74-68.76-42.18-91.39a124.93,124.93,0,0,0-35.16-15.94h0C226.67,19,207.87,17.75,191.54,17.75Z" style="opacity:.1;fill:#ffa205"/><path d="M242.8,187.45c-11.66,0-23.41-2.2-34.79-4.32l-1.55-.3c-19-3.54-37.85-8-52.11-11.43-16.26-4-33.52-8.39-52.77-13.56-4.19-1.13-8.39-2.23-12.61-3.33-16.33-4.28-33.23-8.7-49.28-14.71-16.63-6.24-33.78-15.07-34.84-33.34C3.58,84.69,25.54,70.62,41.58,60.35l1-.63C63.66,46.2,85,36,105.84,29.34a323.4,323.4,0,0,1,64.48-13.46c18.93-2,43.74-3.58,67.69,1.42A126.68,126.68,0,0,1,274.75,31c36.69,20.6,55.17,54.34,49.44,90.25a80.38,80.38,0,0,1-12.89,32.86C298,173.61,271,187,244.21,187.44ZM202.78,16a312.45,312.45,0,0,0-32.26,1.9,321.74,321.74,0,0,0-64.09,13.37C85.71,37.8,64.58,48,43.63,61.38l-1,.63C27,72,5.61,85.73,6.81,106.35c1,17.09,16.73,25.28,33.58,31.6,16,6,32.79,10.38,49.08,14.65q6.33,1.65,12.63,3.33c19.23,5.18,36.47,9.61,52.72,13.55,14.24,3.46,33,7.88,52,11.42l1.56.29c11.74,2.2,23.88,4.44,35.8,4.28,26.21-.41,52.52-13.47,65.49-32.51a78.4,78.4,0,0,0,12.57-32.06c5.6-35.06-12.52-68-48.45-88.22a124.78,124.78,0,0,0-36.18-13.45h0A171.43,171.43,0,0,0,202.78,16Z" style="opacity:.25;fill:#ffa205"/><path d="M239.92,182.58c-9.27,0-18.61-1.08-27.71-2.14l-1.59-.18c-19.23-2.21-38.3-5.32-52.77-7.77-16.53-2.81-34.06-6-53.59-9.85-4.26-.83-8.55-1.64-12.84-2.45-16.59-3.12-33.74-6.35-50.15-11.23-17-5.06-34.75-12.68-37.09-30.82C1.39,96.51,22.32,81,37.6,69.59l.94-.71c20.09-14.95,40.62-26.64,61-34.73a324.23,324.23,0,0,1,63.39-17.91c18.75-3.28,43.38-6.62,67.62-3.31h0A126.53,126.53,0,0,1,268.16,24c38,18,58.83,50.36,55.61,86.59a80.3,80.3,0,0,1-10.56,33.67c-11.92,20.42-37.88,35.69-64.6,38C245.73,182.47,242.83,182.58,239.92,182.58Zm-30.54-169c-16.81,0-32.92,2.34-46.11,4.65a321.67,321.67,0,0,0-63,17.81c-20.22,8-40.6,19.62-60.55,34.47l-.95.71C23.88,82.24,3.49,97.4,6.13,117.89c2.19,17,18.45,24.06,35.7,29.18,16.32,4.85,33.42,8.07,50,11.18q6.43,1.22,12.85,2.45c19.51,3.82,37,7,53.54,9.84,14.45,2.46,33.49,5.55,52.67,7.76l1.59.19c11.86,1.37,24.14,2.78,36,1.77,26.11-2.24,51.46-17.11,63.06-37a78.39,78.39,0,0,0,10.31-32.85c3.13-35.37-17.23-67-54.49-84.63a125,125,0,0,0-37-10.89h0A155.24,155.24,0,0,0,209.38,13.53Z" style="opacity:.4;fill:#ffa205"/><path d="M234.14,178.12c-5.85,0-11.7-.26-17.46-.52l-1.58-.07c-19.36-.87-38.59-2.64-53.19-4.08-16.67-1.65-34.38-3.64-54.14-6.08-4.32-.54-8.65-1-13-1.55-16.76-2-34.09-4-50.81-7.71C26.63,154.26,8.42,147.89,4.82,130,.53,108.58,20.32,91.59,34.76,79.2l.91-.78C54.67,62.09,74.33,49,94.1,39.52a323.44,323.44,0,0,1,62-22.29c18.47-4.58,42.83-9.64,67.22-8h0a127,127,0,0,1,38.3,8.41c39.19,15.3,62.19,46.13,61.51,82.5a80.29,80.29,0,0,1-8.19,34.32c-10.46,21.22-35.3,38.25-61.79,42.39A122.68,122.68,0,0,1,234.14,178.12ZM213.78,10.87c-20.93,0-41.28,4.32-57.23,8.28A321.31,321.31,0,0,0,95,41.3C75.34,50.71,55.83,63.7,37,79.92l-.9.77C22,92.77,2.69,109.32,6.76,129.57c3.36,16.78,20.08,22.71,37.64,26.62,16.62,3.7,33.9,5.72,50.61,7.67q6.51.76,13,1.55c19.75,2.44,37.44,4.43,54.1,6.08,14.57,1.44,33.77,3.2,53.08,4.07l1.58.07c11.93.54,24.27,1.09,36.06-.74,25.89-4,50.13-20.66,60.32-41.32a78.31,78.31,0,0,0,8-33.49c.66-35.5-21.86-65.64-60.26-80.62a124.69,124.69,0,0,0-37.7-8.28C220,11,216.9,10.87,213.78,10.87Z" style="opacity:.55;fill:#ffa205"/><path d="M201.17,174.7c-12.87,0-25-.29-35-.58-16.64-.47-34.45-1.22-54.43-2.29-4.35-.23-8.7-.43-13.06-.63-16.86-.79-34.29-1.6-51.23-4.15-17.57-2.64-36.18-7.71-41-25.35C.63,120.66,19.19,102.33,32.75,89l.83-.82c17.81-17.6,36.51-32,55.57-42.88a324,324,0,0,1,60.28-26.56c18.1-5.86,42-12.6,66.5-12.69h.52a126.56,126.56,0,0,1,38.26,5.72c40.17,12.52,65.26,41.68,67.12,78a80.38,80.38,0,0,1-5.77,34.82c-9,21.89-32.54,40.62-58.68,46.6-11.81,2.7-24.25,3-36.28,3.3l-1.61,0C213.32,174.64,207.17,174.7,201.17,174.7ZM215.93,7V8c-24.2.08-47.93,6.77-65.9,12.59A321.57,321.57,0,0,0,90.13,47C71.22,57.73,52.66,72.05,35,89.54l-.83.82c-13.2,13-31.29,30.89-25.83,50.81,4.53,16.51,21.62,21.26,39.41,23.93,16.84,2.53,34.22,3.34,51,4.13,4.37.2,8.73.4,13.07.64,20,1.06,37.76,1.81,54.39,2.28,14.63.42,33.9.84,53.23.36l1.62,0c11.93-.29,24.27-.6,35.88-3.25,25.55-5.85,48.57-24.11,57.3-45.42a78.36,78.36,0,0,0,5.63-34c-1.81-35.47-26.39-64-65.73-76.22A124.76,124.76,0,0,0,216.45,8h-.52Z" style="opacity:.7;fill:#ffa205"/><path d="M78.37,176.78c-9,0-18-.23-27-.94-17.71-1.41-36.63-5.17-42.69-22.44C1.5,132.82,18.73,113.25,31.31,99l.78-.88C48.63,79.27,66.28,63.57,84.54,51.43a322.55,322.55,0,0,1,58.28-30.7c17.65-7.12,41.05-15.51,65.45-17.3h0a126.65,126.65,0,0,1,39.09,3c40.94,9.69,68,37,72.4,73.13a80.51,80.51,0,0,1-3.33,35.13c-7.41,22.46-29.64,42.79-55.29,50.58-11.6,3.52-24,4.69-36,5.82l-1.6.16c-19.29,1.83-38.58,2.76-53.24,3.36-16.69.69-34.51,1.18-54.46,1.52-4.35.07-8.71.17-13.08.27C94.75,176.59,86.57,176.78,78.37,176.78Zm130-171.39c-24.13,1.78-47.34,10.11-64.87,17.16A321.82,321.82,0,0,0,85.63,53.07C67.52,65.12,50,80.7,33.57,99.38l-.78.89c-12.26,13.92-29,33-22.21,52.48,5.67,16.15,23.05,19.7,41,21.12,17,1.35,34.37.95,51.19.56q6.56-.15,13.09-.28c19.93-.33,37.73-.82,54.41-1.51,14.63-.6,33.89-1.53,53.13-3.36l1.61-.15c11.88-1.12,24.17-2.29,35.57-5.75,25.08-7.61,46.77-27.43,54-49.31A78.28,78.28,0,0,0,317.8,79.8c-4.29-35.25-30.79-62-70.89-71.45a125.29,125.29,0,0,0-38.49-3Z" style="opacity:.85;fill:#ffa205"/><path class="cls-2" d="M58.46,184.34l-2.39,0c-17.76-.16-36.9-2.6-44.15-19.4-8.64-20,7.19-40.75,18.74-55.88l.72-.94c15.19-19.92,31.7-36.81,49.07-50.2a323.59,323.59,0,0,1,56-34.69c17.12-8.32,39.87-18.33,64.09-21.82h0a126.81,126.81,0,0,1,39.2.27c41.52,6.81,70.43,32.19,77.32,67.9a80.31,80.31,0,0,1-.87,35.28c-5.83,22.92-26.58,44.75-51.63,54.31-11.33,4.32-23.61,6.36-35.5,8.32l-1.55.26c-19.11,3.18-38.29,5.45-52.87,7.08-16.68,1.85-34.42,3.59-54.23,5.3q-6.48.57-13,1.18C91.39,182.79,74.83,184.34,58.46,184.34Zm142.35-181C176.86,6.8,154.29,16.72,137.3,25A321.42,321.42,0,0,0,81.65,59.47C64.42,72.75,48,89.51,33,109.3l-.72.94C21,125,5.55,145.18,13.74,164.14c6.78,15.72,24.36,18,42.35,18.21,17,.16,34.38-1.45,51.15-3,4.34-.4,8.67-.81,13-1.18,19.8-1.71,37.52-3.45,54.18-5.31,14.56-1.62,33.71-3.89,52.76-7.05l1.56-.26c11.79-1.95,24-4,35.12-8.23,24.48-9.33,44.74-30.62,50.42-53a78.38,78.38,0,0,0,.84-34.42c-6.73-34.86-35-59.66-75.7-66.33a125.11,125.11,0,0,0-38.6-.26Z"/></g></g></svg>