<svg width="725" height="35" viewBox="0 0 725 35" fill="none" xmlns="http://www.w3.org/2000/svg">
<path d="M0.4767 34.5V0.899998H13.0527C15.9007 0.899998 18.3487 1.364 20.3967 2.292C22.4447 3.188 24.0127 4.5 25.1007 6.228C26.2207 7.924 26.7807 9.988 26.7807 12.42C26.7807 14.788 26.2207 16.836 25.1007 18.564C24.0127 20.26 22.4447 21.572 20.3967 22.5C18.3487 23.396 15.9007 23.844 13.0527 23.844H2.4447L4.0287 22.212V34.5H0.4767ZM23.4207 34.5L14.7807 22.308H18.6207L27.3087 34.5H23.4207ZM4.0287 22.5L2.4447 20.82H12.9567C16.3167 20.82 18.8607 20.084 20.5887 18.612C22.3487 17.14 23.2287 15.076 23.2287 12.42C23.2287 9.732 22.3487 7.652 20.5887 6.18C18.8607 4.708 16.3167 3.972 12.9567 3.972H2.4447L4.0287 2.292V22.5ZM357.663 15.924H375.423V18.948H357.663V15.924ZM358.047 31.428H378.255V34.5H354.495V0.899998H377.535V3.972H358.047V31.428Z" fill="#666666"/>
<path d="M45.5322 15.924H63.2922V18.948H45.5322V15.924ZM45.9162 31.428H66.1242V34.5H42.3642V0.899998H65.4042V3.972H45.9162V31.428ZM90.9376 34.788C88.4416 34.788 86.0416 34.388 83.7376 33.588C81.4656 32.756 79.7056 31.7 78.4576 30.42L79.8496 27.684C81.0336 28.836 82.6176 29.812 84.6016 30.612C86.6176 31.38 88.7296 31.764 90.9376 31.764C93.0496 31.764 94.7616 31.508 96.0736 30.996C97.4176 30.452 98.3936 29.732 99.0016 28.836C99.6416 27.94 99.9616 26.948 99.9616 25.86C99.9616 24.548 99.5776 23.492 98.8096 22.692C98.0736 21.892 97.0976 21.268 95.8816 20.82C94.6656 20.34 93.3216 19.924 91.8496 19.572C90.3776 19.22 88.9056 18.852 87.4336 18.468C85.9616 18.052 84.6016 17.508 83.3536 16.836C82.1376 16.164 81.1456 15.284 80.3776 14.196C79.6416 13.076 79.2736 11.62 79.2736 9.828C79.2736 8.164 79.7056 6.644 80.5696 5.268C81.4656 3.86 82.8256 2.74 84.6496 1.908C86.4736 1.044 88.8096 0.611999 91.6576 0.611999C93.5456 0.611999 95.4176 0.883999 97.2736 1.428C99.1296 1.94 100.73 2.66 102.074 3.588L100.874 6.42C99.4336 5.46 97.8976 4.756 96.2656 4.308C94.6656 3.86 93.1136 3.636 91.6096 3.636C89.5936 3.636 87.9296 3.908 86.6176 4.452C85.3056 4.996 84.3296 5.732 83.6896 6.66C83.0816 7.556 82.7776 8.58 82.7776 9.732C82.7776 11.044 83.1456 12.1 83.8816 12.9C84.6496 13.7 85.6416 14.324 86.8576 14.772C88.1056 15.22 89.4656 15.62 90.9376 15.972C92.4096 16.324 93.8656 16.708 95.3056 17.124C96.7776 17.54 98.1216 18.084 99.3376 18.756C100.586 19.396 101.578 20.26 102.314 21.348C103.082 22.436 103.466 23.86 103.466 25.62C103.466 27.252 103.018 28.772 102.122 30.18C101.226 31.556 99.8496 32.676 97.9936 33.54C96.1696 34.372 93.8176 34.788 90.9376 34.788ZM133.093 34.788C130.565 34.788 128.213 34.372 126.037 33.54C123.893 32.676 122.021 31.476 120.421 29.94C118.853 28.372 117.621 26.564 116.725 24.516C115.861 22.436 115.429 20.164 115.429 17.7C115.429 15.236 115.861 12.98 116.725 10.932C117.621 8.852 118.853 7.044 120.421 5.508C122.021 3.94 123.893 2.74 126.037 1.908C128.181 1.044 130.533 0.611999 133.093 0.611999C135.621 0.611999 137.957 1.044 140.101 1.908C142.245 2.74 144.101 3.924 145.669 5.46C147.269 6.996 148.501 8.804 149.365 10.884C150.261 12.964 150.709 15.236 150.709 17.7C150.709 20.164 150.261 22.436 149.365 24.516C148.501 26.596 147.269 28.404 145.669 29.94C144.101 31.476 142.245 32.676 140.101 33.54C137.957 34.372 135.621 34.788 133.093 34.788ZM133.093 31.62C135.109 31.62 136.965 31.284 138.661 30.612C140.389 29.908 141.877 28.932 143.125 27.684C144.405 26.404 145.397 24.932 146.101 23.268C146.805 21.572 147.157 19.716 147.157 17.7C147.157 15.684 146.805 13.844 146.101 12.18C145.397 10.484 144.405 9.012 143.125 7.764C141.877 6.484 140.389 5.508 138.661 4.836C136.965 4.132 135.109 3.78 133.093 3.78C131.077 3.78 129.205 4.132 127.477 4.836C125.749 5.508 124.245 6.484 122.965 7.764C121.717 9.012 120.725 10.484 119.989 12.18C119.285 13.844 118.933 15.684 118.933 17.7C118.933 19.684 119.285 21.524 119.989 23.22C120.725 24.916 121.717 26.404 122.965 27.684C124.245 28.932 125.749 29.908 127.477 30.612C129.205 31.284 131.077 31.62 133.093 31.62ZM165.87 34.5V0.899998H168.798L191.982 30.084H190.446V0.899998H193.95V34.5H191.022L167.886 5.316H169.422V34.5H165.87ZM206.741 34.5L222.101 0.899998H225.605L240.965 34.5H237.221L223.109 2.964H224.549L210.437 34.5H206.741ZM212.789 25.524L213.845 22.644H233.381L234.437 25.524H212.789ZM253.724 34.5V0.899998H256.652L279.836 30.084H278.3V0.899998H281.804V34.5H278.876L255.74 5.316H257.276V34.5H253.724ZM306.498 34.5V3.972H294.69V0.899998H321.858V3.972H310.05V34.5H306.498ZM393.805 34.5V0.899998H396.733L419.917 30.084H418.381V0.899998H421.885V34.5H418.957L395.821 5.316H397.357V34.5H393.805ZM443.22 15.924H460.98V18.948H443.22V15.924ZM443.604 31.428H463.812V34.5H440.052V0.899998H463.092V3.972H443.604V31.428ZM479.361 34.5V0.899998H491.937C494.785 0.899998 497.233 1.364 499.281 2.292C501.329 3.188 502.897 4.5 503.985 6.228C505.105 7.924 505.665 9.988 505.665 12.42C505.665 14.788 505.105 16.836 503.985 18.564C502.897 20.26 501.329 21.572 499.281 22.5C497.233 23.396 494.785 23.844 491.937 23.844H481.329L482.913 22.212V34.5H479.361ZM502.305 34.5L493.665 22.308H497.505L506.193 34.5H502.305ZM482.913 22.5L481.329 20.82H491.841C495.201 20.82 497.745 20.084 499.473 18.612C501.233 17.14 502.113 15.076 502.113 12.42C502.113 9.732 501.233 7.652 499.473 6.18C497.745 4.708 495.201 3.972 491.841 3.972H481.329L482.913 2.292V22.5ZM535.985 34.788C533.425 34.788 531.057 34.372 528.881 33.54C526.737 32.676 524.865 31.476 523.265 29.94C521.697 28.404 520.465 26.596 519.569 24.516C518.705 22.436 518.273 20.164 518.273 17.7C518.273 15.236 518.705 12.964 519.569 10.884C520.465 8.804 521.713 6.996 523.313 5.46C524.913 3.924 526.785 2.74 528.929 1.908C531.105 1.044 533.473 0.611999 536.033 0.611999C538.593 0.611999 540.929 1.012 543.041 1.812C545.185 2.612 547.009 3.828 548.513 5.46L546.305 7.716C544.897 6.308 543.345 5.3 541.649 4.692C539.953 4.084 538.129 3.78 536.177 3.78C534.097 3.78 532.177 4.132 530.417 4.836C528.689 5.508 527.169 6.484 525.857 7.764C524.577 9.012 523.569 10.484 522.833 12.18C522.129 13.844 521.777 15.684 521.777 17.7C521.777 19.684 522.129 21.524 522.833 23.22C523.569 24.916 524.577 26.404 525.857 27.684C527.169 28.932 528.689 29.908 530.417 30.612C532.177 31.284 534.081 31.62 536.129 31.62C538.049 31.62 539.857 31.332 541.553 30.756C543.281 30.18 544.865 29.204 546.305 27.828L548.321 30.516C546.721 31.924 544.849 32.996 542.705 33.732C540.561 34.436 538.321 34.788 535.985 34.788ZM544.913 30.084V17.7H548.321V30.516L544.913 30.084ZM568.742 15.924H586.502V18.948H568.742V15.924ZM569.126 31.428H589.334V34.5H565.574V0.899998H588.614V3.972H569.126V31.428ZM611.411 34.5V3.972H599.603V0.899998H626.771V3.972H614.963V34.5H611.411ZM639.645 34.5V0.899998H643.197V34.5H639.645ZM675.922 34.788C673.394 34.788 671.058 34.372 668.914 33.54C666.77 32.676 664.914 31.476 663.346 29.94C661.778 28.404 660.546 26.596 659.65 24.516C658.786 22.436 658.354 20.164 658.354 17.7C658.354 15.236 658.786 12.964 659.65 10.884C660.546 8.804 661.778 6.996 663.346 5.46C664.946 3.924 666.818 2.74 668.962 1.908C671.106 1.044 673.442 0.611999 675.97 0.611999C678.402 0.611999 680.69 1.028 682.834 1.86C684.978 2.66 686.786 3.876 688.258 5.508L686.002 7.764C684.626 6.356 683.106 5.348 681.442 4.74C679.778 4.1 677.986 3.78 676.066 3.78C674.05 3.78 672.178 4.132 670.45 4.836C668.722 5.508 667.218 6.484 665.938 7.764C664.658 9.012 663.65 10.484 662.914 12.18C662.21 13.844 661.858 15.684 661.858 17.7C661.858 19.716 662.21 21.572 662.914 23.268C663.65 24.932 664.658 26.404 665.938 27.684C667.218 28.932 668.722 29.908 670.45 30.612C672.178 31.284 674.05 31.62 676.066 31.62C677.986 31.62 679.778 31.3 681.442 30.66C683.106 30.02 684.626 28.996 686.002 27.588L688.258 29.844C686.786 31.476 684.978 32.708 682.834 33.54C680.69 34.372 678.386 34.788 675.922 34.788ZM712.2 34.788C709.704 34.788 707.304 34.388 705 33.588C702.728 32.756 700.968 31.7 699.72 30.42L701.112 27.684C702.296 28.836 703.88 29.812 705.864 30.612C707.88 31.38 709.992 31.764 712.2 31.764C714.312 31.764 716.024 31.508 717.336 30.996C718.68 30.452 719.656 29.732 720.264 28.836C720.904 27.94 721.224 26.948 721.224 25.86C721.224 24.548 720.84 23.492 720.072 22.692C719.336 21.892 718.36 21.268 717.144 20.82C715.928 20.34 714.584 19.924 713.112 19.572C711.64 19.22 710.168 18.852 708.696 18.468C707.224 18.052 705.864 17.508 704.616 16.836C703.4 16.164 702.408 15.284 701.64 14.196C700.904 13.076 700.536 11.62 700.536 9.828C700.536 8.164 700.968 6.644 701.832 5.268C702.728 3.86 704.088 2.74 705.912 1.908C707.736 1.044 710.072 0.611999 712.92 0.611999C714.808 0.611999 716.68 0.883999 718.536 1.428C720.392 1.94 721.992 2.66 723.336 3.588L722.136 6.42C720.696 5.46 719.16 4.756 717.528 4.308C715.928 3.86 714.376 3.636 712.872 3.636C710.856 3.636 709.192 3.908 707.88 4.452C706.568 4.996 705.592 5.732 704.952 6.66C704.344 7.556 704.04 8.58 704.04 9.732C704.04 11.044 704.408 12.1 705.144 12.9C705.912 13.7 706.904 14.324 708.12 14.772C709.368 15.22 710.728 15.62 712.2 15.972C713.672 16.324 715.128 16.708 716.568 17.124C718.04 17.54 719.384 18.084 720.6 18.756C721.848 19.396 722.84 20.26 723.576 21.348C724.344 22.436 724.728 23.86 724.728 25.62C724.728 27.252 724.28 28.772 723.384 30.18C722.488 31.556 721.112 32.676 719.256 33.54C717.432 34.372 715.08 34.788 712.2 34.788Z" fill="#FFA205"/>
</svg>
