<svg width="139" height="139" viewBox="0 0 139 139" fill="none" xmlns="http://www.w3.org/2000/svg">
<path d="M69.5 139C31.1176 139 0 107.886 0 69.495C0 31.1036 31.1176 0 69.5 0C107.882 0 139 31.1136 139 69.495C138.97 107.866 107.862 138.96 69.5 138.99V139ZM69.5 3.91422C33.2861 3.91422 3.90719 33.2759 3.90719 69.495C3.90719 105.714 33.2861 135.086 69.5 135.086C105.714 135.086 135.093 105.724 135.093 69.495C135.043 33.2859 105.714 3.95427 69.5 3.90421V3.91422Z" fill="#7B62E7"/>
<path d="M92.8343 56.7214C92.0949 57.4421 90.9257 57.4521 90.1762 56.7314L77.975 44.9687C73.9779 41.3448 72.5789 35.9289 74.4176 31.1438C75.9964 27.0293 79.5139 24.4766 83.611 24.4766C86.399 24.4766 89.2769 26.2685 91.2255 28.4809C93.1441 26.2685 95.9921 24.4766 98.79 24.4766C102.857 24.4766 106.395 26.9492 108.023 30.9435C109.542 34.6676 109.492 40.2936 104.786 44.9386L92.8143 56.7214H92.8343ZM83.621 28.1505C81.0828 28.1505 78.8644 29.8023 77.8451 32.4552C76.8258 35.1281 76.9657 39.1023 80.4632 42.2557L80.5132 42.2958L90.2062 51.6559C90.9257 52.3466 92.0549 52.3366 92.7644 51.6459L102.238 42.3158C105.655 38.9522 105.725 34.9579 104.656 32.335C103.587 29.7222 101.398 28.1505 98.81 28.1505C96.8115 28.1505 94.0534 30.1927 92.9043 32.5152L92.3946 33.5463C91.935 34.4673 90.6359 34.4774 90.1563 33.5664L89.6266 32.5353C88.4275 30.1927 85.6195 28.1405 83.621 28.1405V28.1505Z" fill="#7B62E7"/>
<path d="M97.0208 79.2457C96.2014 79.6861 95.1722 79.3858 94.7225 78.5649L90.1758 70.1358C89.1765 68.5341 88.9167 66.552 89.4663 64.69C89.9559 63.0382 91.0252 61.6567 92.4741 60.8058C93.9631 59.9348 95.6618 59.7246 97.2707 60.2051C98.6797 60.6256 99.8788 61.5666 100.658 62.8179C101.997 62.1973 103.506 62.0671 104.915 62.4876C106.524 62.9681 107.833 64.0793 108.593 65.621C109.342 67.1326 109.482 68.8645 108.992 70.5162C108.433 72.3782 107.134 73.8999 105.425 74.6907L97.0109 79.2457H97.0208ZM95.5819 63.0982C95.0623 63.0982 94.5526 63.2384 94.073 63.5187C93.3135 63.9592 92.7539 64.7 92.4841 65.5809C92.1843 66.592 92.3242 67.6431 92.8538 68.484L92.9138 68.5842L96.1715 74.6207C96.5212 75.2614 97.3106 75.5016 97.9502 75.1512L104.086 71.8377C104.995 71.4372 105.685 70.6264 105.984 69.6153C106.244 68.7343 106.174 67.8033 105.785 67.0225C105.415 66.2717 104.785 65.7311 104.016 65.5008C102.987 65.1905 101.877 65.5008 101.048 66.3117L100.548 66.8022C99.8788 67.4529 98.7596 67.1226 98.5597 66.2116L98.4099 65.5309C98.16 64.3896 97.4006 63.5287 96.3713 63.2184C96.1115 63.1383 95.8417 63.0982 95.5719 63.0982H95.5819Z" fill="#7B62E7"/>
<path d="M81.662 98.6759C81.662 98.6258 81.6521 98.5658 81.6521 98.5157V54.8386C81.6521 54.7385 81.6421 54.6384 81.6221 54.5383C81.6221 54.5182 81.6221 54.4982 81.6221 54.4782C81.6021 54.3581 81.5621 54.248 81.5221 54.1378C81.4922 54.0778 81.4622 54.0177 81.4322 53.9677C81.4022 53.9176 81.3823 53.8675 81.3523 53.8275C81.3223 53.7875 81.2823 53.7474 81.2523 53.7074C81.2124 53.6573 81.1724 53.5973 81.1224 53.5572C81.0425 53.4771 80.9526 53.397 80.8526 53.337C80.8326 53.327 80.8127 53.317 80.8027 53.3069C80.7127 53.2569 80.6328 53.2068 80.5329 53.1668L45.3782 38.7612H45.3582C45.3582 38.7612 45.2882 38.7312 45.2482 38.7212C45.1683 38.6912 45.0984 38.6711 45.0184 38.6511C44.9285 38.6311 44.8485 38.6311 44.7586 38.6211C44.7286 38.6211 44.6986 38.6211 44.6687 38.6211C44.5587 38.6211 44.4488 38.6311 44.3389 38.6511C44.3289 38.6511 44.3089 38.6511 44.2989 38.6511C44.179 38.6711 44.0691 38.7112 43.9592 38.7612C43.8992 38.7813 43.8592 38.8213 43.7993 38.8413C43.7493 38.8714 43.6894 38.8914 43.6394 38.9214C43.5994 38.9514 43.5595 38.9815 43.5295 39.0115C43.4795 39.0516 43.4196 39.0916 43.3696 39.1417C43.2897 39.2217 43.2097 39.3118 43.1498 39.4119C43.1398 39.432 43.1298 39.452 43.1198 39.462C43.0698 39.5521 43.0198 39.6322 42.9799 39.7323C42.9699 39.7623 42.9599 39.8024 42.9499 39.8424C42.9199 39.9225 42.8999 39.9926 42.8799 40.0727C42.86 40.1527 42.86 40.2328 42.86 40.3229C42.86 40.363 42.85 40.393 42.85 40.433V40.4531V54.4382C42.85 54.5182 42.85 54.5883 42.85 54.6684V75.2306C42.85 76.2517 41.8007 76.9324 40.8814 76.502C38.5631 75.4108 35.7751 75.0904 32.9071 75.6511C25.7323 77.0426 19.8965 83.5296 19.8965 90.0966C19.8965 93.19 21.1556 95.943 23.4539 97.835C25.4325 99.4668 28.0306 100.328 30.8386 100.328C31.748 100.328 32.6773 100.238 33.6166 100.057C40.7915 98.6659 46.6273 92.1789 46.6273 85.6118C46.6273 85.1513 46.5873 84.7008 46.5373 84.2603C46.5373 84.2103 46.5273 84.1502 46.5273 84.1002V59.3735C46.5273 58.3824 47.5366 57.7017 48.4559 58.0821L77.1753 69.8548C77.6949 70.065 78.0446 70.5856 78.0446 71.1462V89.6562C78.0446 90.6773 76.9954 91.358 76.0761 90.9275C73.7577 89.8364 70.9697 89.516 68.1018 90.0766C60.927 91.4681 55.0912 97.9551 55.0912 104.522C55.0912 107.616 56.3503 110.369 58.6486 112.261C60.6272 113.892 63.2253 114.753 66.0333 114.753C66.9426 114.753 67.872 114.663 68.8113 114.483C75.9861 113.091 81.8219 106.604 81.8219 100.037C81.8219 99.5769 81.782 99.1264 81.732 98.6859L81.662 98.6759ZM32.8672 96.4435C30.0991 96.9741 27.511 96.4435 25.7423 94.9919C24.2933 93.7906 23.5239 92.0988 23.5239 90.0866C23.5239 85.1913 28.0306 80.3261 33.5666 79.2449C36.3347 78.7043 38.9228 79.2449 40.6915 80.6965C41.8107 81.6175 42.5102 82.8388 42.78 84.2704C42.8 84.3604 42.81 84.4606 42.81 84.5607V86.3025C42.81 86.4127 42.82 86.5228 42.84 86.6329C42.2704 91.1678 38.0134 95.4424 32.8672 96.4435ZM46.4774 52.3759V45.2482C46.4774 44.2572 47.4866 43.5764 48.406 43.9568L77.1253 55.7296C77.6449 55.9398 77.9947 56.4603 77.9947 57.0209V64.1486C77.9947 65.1397 76.9854 65.8204 76.0661 65.44L47.3467 53.6673C46.8271 53.4571 46.4774 52.9365 46.4774 52.3759ZM68.0418 110.859C65.2738 111.4 62.6857 110.859 60.917 109.407C59.468 108.206 58.6986 106.514 58.6986 104.502C58.6986 99.6069 63.2053 94.7416 68.7413 93.6605C71.5094 93.1199 74.1075 93.6605 75.8662 95.1121C76.9854 96.033 77.6949 97.2544 77.9547 98.6859C77.9747 98.776 77.9847 98.8761 77.9847 98.9762V100.718C77.9847 100.828 77.9947 100.938 78.0147 101.038C77.4451 105.573 73.1881 109.848 68.0418 110.849V110.859Z" fill="#7B62E7"/>
</svg>
