<svg width="139" height="139" viewBox="0 0 139 139" fill="none" xmlns="http://www.w3.org/2000/svg">
<path d="M69.4072 139C55.6646 138.982 42.2359 134.889 30.8185 127.241C19.4011 119.592 10.5075 108.73 5.26203 96.0279C0.0165157 83.3258 -1.3455 69.3536 1.34815 55.8776C4.0418 42.4015 10.6702 30.0265 20.3955 20.3168C30.1208 10.607 42.5064 3.99849 55.9867 1.32642C69.4671 -1.34564 83.4371 0.0387503 96.1308 5.3046C108.825 10.5705 119.672 19.4814 127.303 30.911C134.933 42.3406 139.004 55.7759 139 69.5185C138.98 87.9626 131.636 105.644 118.582 118.674C105.528 131.703 87.8328 139.015 69.3887 139H69.4072ZM69.4072 3.93533C56.4409 3.95735 43.772 7.82245 33.0015 15.0422C22.2311 22.2619 13.8425 32.5123 8.89571 44.498C3.94894 56.4837 2.66606 69.6668 5.20916 82.3813C7.75227 95.0959 14.0072 106.771 23.1836 115.932C32.36 125.093 44.046 131.328 56.7649 133.85C69.4837 136.371 82.6646 135.066 94.6419 130.099C106.619 125.132 116.855 116.726 124.057 105.943C131.258 95.1603 135.102 82.4849 135.102 69.5185C135.094 60.8987 133.389 52.3647 130.084 44.4039C126.779 36.443 121.938 29.2111 115.837 23.1211C109.737 17.0312 102.497 12.2024 94.5304 8.91048C86.5639 5.61857 78.027 3.92802 69.4072 3.93533Z" fill="#0578DA"/>
<path d="M107.833 82.0483H30.9822C30.5637 82.0483 30.1623 81.8821 29.8664 81.5862C29.5705 81.2903 29.4043 80.889 29.4043 80.4705V38.1839C29.4092 35.1281 30.6253 32.1988 32.7861 30.038C34.9469 27.8772 37.8761 26.6612 40.9319 26.6562H97.8648C100.921 26.6612 103.85 27.8772 106.011 30.038C108.171 32.1988 109.388 35.1281 109.392 38.1839V80.4705C109.392 80.8858 109.229 81.2843 108.937 81.5797C108.645 81.8751 108.248 82.0435 107.833 82.0483ZM32.5414 78.9112H106.255V38.1839C106.263 37.0765 106.051 35.9785 105.633 34.9531C105.215 33.9276 104.598 32.9949 103.819 32.2083C103.039 31.4218 102.112 30.797 101.09 30.3699C100.068 29.9427 98.9722 29.7216 97.8648 29.7192H40.9319C38.7082 29.7241 36.5768 30.6096 35.0044 32.1821C33.4319 33.7545 32.5464 35.8859 32.5414 38.1096V78.9112Z" fill="#0578DA"/>
<path d="M100.761 75.5149H38.0368C37.6184 75.5149 37.217 75.3487 36.9211 75.0527C36.6252 74.7568 36.459 74.3555 36.459 73.937V35.2888C36.459 35.0816 36.4998 34.8764 36.5791 34.685C36.6584 34.4935 36.7746 34.3196 36.9211 34.1731C37.0676 34.0266 37.2416 33.9103 37.433 33.831C37.6245 33.7518 37.8296 33.7109 38.0368 33.7109H100.761C100.969 33.7109 101.174 33.7518 101.365 33.831C101.557 33.9103 101.731 34.0266 101.877 34.1731C102.024 34.3196 102.14 34.4935 102.219 34.685C102.298 34.8764 102.339 35.0816 102.339 35.2888V73.937C102.339 74.3555 102.173 74.7568 101.877 75.0527C101.581 75.3487 101.18 75.5149 100.761 75.5149ZM39.6147 72.4149H99.1835V36.8481H39.6147V72.4149Z" fill="#0578DA"/>
<path d="M85.1674 96.8421C84.8933 96.841 84.6242 96.7686 84.3865 96.6319C84.1489 96.4952 83.951 96.2989 83.8123 96.0624L79.5057 88.6372H59.1792L54.8726 96.0624C54.7746 96.2522 54.6392 96.4201 54.4744 96.556C54.3097 96.6919 54.1191 96.7929 53.9141 96.853C53.7092 96.913 53.4942 96.9309 53.2822 96.9054C53.0701 96.8799 52.8655 96.8116 52.6806 96.7047C52.4957 96.5978 52.3345 96.4545 52.2066 96.2835C52.0788 96.1124 51.987 95.9172 51.9368 95.7096C51.8866 95.502 51.8791 95.2864 51.9146 95.0759C51.9502 94.8653 52.0282 94.6641 52.1438 94.4846L56.8959 86.2426C57.039 86.0059 57.2404 85.8099 57.481 85.6734C57.7215 85.5369 57.993 85.4644 58.2696 85.4629H80.4896C80.7668 85.4607 81.0398 85.5316 81.281 85.6685C81.5221 85.8054 81.7229 86.0034 81.8632 86.2426L86.6154 94.4846C86.8192 94.8477 86.8731 95.276 86.7656 95.6783C86.6581 96.0806 86.3977 96.4249 86.0399 96.6379C85.7753 96.7898 85.472 96.8608 85.1674 96.8421Z" fill="#0578DA"/>
<path d="M119.174 97.1042H19.6203C19.3227 97.1151 19.0283 97.0406 18.7718 96.8895C18.5153 96.7383 18.3073 96.5169 18.1726 96.2514C18.0379 95.9859 17.9821 95.6874 18.0116 95.3911C18.0412 95.0949 18.1549 94.8133 18.3394 94.5796L30.2755 79.0052C30.4244 78.8127 30.6158 78.6572 30.8348 78.5509C31.0538 78.4446 31.2944 78.3905 31.5377 78.3926H107.238C107.478 78.3919 107.716 78.4468 107.931 78.5531C108.147 78.6594 108.336 78.8141 108.482 79.0052L120.436 94.5796C120.618 94.8108 120.731 95.0889 120.762 95.3817C120.793 95.6745 120.74 95.97 120.61 96.2341C120.48 96.4982 120.278 96.7201 120.027 96.874C119.776 97.028 119.487 97.1078 119.192 97.1042H119.174ZM22.8131 93.967H115.981L106.458 81.5484H32.336L22.8131 93.967Z" fill="#0578DA"/>
<path d="M113.867 102.933H24.9318C23.1068 102.929 21.3579 102.201 20.0675 100.911C18.777 99.6205 18.0498 97.8716 18.0449 96.0466C18.0449 95.6281 18.2112 95.2268 18.5071 94.9309C18.803 94.635 19.2043 94.4688 19.6228 94.4688C20.0413 94.4688 20.4426 94.635 20.7385 94.9309C21.0344 95.2268 21.2006 95.6281 21.2006 96.0466C21.2006 97.0312 21.5918 97.9756 22.288 98.6718C22.9843 99.3681 23.9286 99.7592 24.9132 99.7592H113.867C114.852 99.7592 115.796 99.3681 116.493 98.6718C117.189 97.9756 117.58 97.0312 117.58 96.0466C117.58 95.6281 117.746 95.2268 118.042 94.9309C118.338 94.635 118.739 94.4688 119.158 94.4688C119.576 94.4688 119.978 94.635 120.273 94.9309C120.569 95.2268 120.736 95.6281 120.736 96.0466C120.731 97.8684 120.006 99.6145 118.72 100.904C117.433 102.194 115.689 102.924 113.867 102.933Z" fill="#0578DA"/>
<path d="M93.3554 46.6876H45.4442C45.1987 46.7129 44.9506 46.6864 44.7159 46.6097C44.4813 46.5331 44.2654 46.4081 44.0821 46.2427C43.8989 46.0774 43.7524 45.8754 43.6521 45.6499C43.5518 45.4243 43.5 45.1802 43.5 44.9334C43.5 44.6866 43.5518 44.4425 43.6521 44.217C43.7524 43.9914 43.8989 43.7895 44.0821 43.6241C44.2654 43.4588 44.4813 43.3337 44.7159 43.2571C44.9506 43.1804 45.1987 43.1539 45.4442 43.1792H93.3554C93.6009 43.1539 93.849 43.1804 94.0836 43.2571C94.3182 43.3337 94.5342 43.4588 94.7174 43.6241C94.9007 43.7895 95.0472 43.9914 95.1475 44.217C95.2477 44.4425 95.2996 44.6866 95.2996 44.9334C95.2996 45.1802 95.2477 45.4243 95.1475 45.6499C95.0472 45.8754 94.9007 46.0774 94.7174 46.2427C94.5342 46.4081 94.3182 46.5331 94.0836 46.6097C93.849 46.6864 93.6009 46.7129 93.3554 46.6876Z" fill="#0578DA"/>
<path d="M93.353 56.1139H45.4418C45.163 56.2056 44.8664 56.2298 44.5764 56.1846C44.2865 56.1395 44.0113 56.0262 43.7736 55.8541C43.5359 55.682 43.3424 55.456 43.2089 55.1946C43.0754 54.9332 43.0059 54.6439 43.0059 54.3504C43.0059 54.057 43.0754 53.7677 43.2089 53.5063C43.3424 53.2449 43.5359 53.0189 43.7736 52.8468C44.0113 52.6747 44.2865 52.5614 44.5764 52.5163C44.8664 52.4711 45.163 52.4953 45.4418 52.587H93.353C93.6318 52.4953 93.9283 52.4711 94.2183 52.5163C94.5083 52.5614 94.7834 52.6747 95.0212 52.8468C95.2589 53.0189 95.4524 53.2449 95.5859 53.5063C95.7193 53.7677 95.7889 54.057 95.7889 54.3504C95.7889 54.6439 95.7193 54.9332 95.5859 55.1946C95.4524 55.456 95.2589 55.682 95.0212 55.8541C94.7834 56.0262 94.5083 56.1395 94.2183 56.1846C93.9283 56.2298 93.6318 56.2056 93.353 56.1139Z" fill="#0578DA"/>
<path d="M93.3554 65.5255H45.4442C45.1987 65.5508 44.9506 65.5243 44.7159 65.4476C44.4813 65.371 44.2654 65.2459 44.0821 65.0806C43.8989 64.9153 43.7524 64.7133 43.6521 64.4877C43.5518 64.2622 43.5 64.0181 43.5 63.7713C43.5 63.5245 43.5518 63.2804 43.6521 63.0549C43.7524 62.8293 43.8989 62.6273 44.0821 62.462C44.2654 62.2966 44.4813 62.1716 44.7159 62.095C44.9506 62.0183 45.1987 61.9918 45.4442 62.0171H93.3554C93.6009 61.9918 93.849 62.0183 94.0836 62.095C94.3182 62.1716 94.5342 62.2966 94.7174 62.462C94.9007 62.6273 95.0472 62.8293 95.1475 63.0549C95.2477 63.2804 95.2996 63.5245 95.2996 63.7713C95.2996 64.0181 95.2477 64.2622 95.1475 64.4877C95.0472 64.7133 94.9007 64.9153 94.7174 65.0806C94.5342 65.2459 94.3182 65.371 94.0836 65.4476C93.849 65.5243 93.6009 65.5508 93.3554 65.5255Z" fill="#0578DA"/>
</svg>
