<svg width="52" height="52" viewBox="0 0 52 52" fill="none" xmlns="http://www.w3.org/2000/svg">
<path opacity="0.3" d="M27.5 25.7401L50.9 2.32009C51.0282 2.19523 51.1301 2.04596 51.1997 1.88108C51.2693 1.7162 51.3051 1.53905 51.3051 1.36009C51.3051 1.18113 51.2693 1.00398 51.1997 0.8391C51.1301 0.674219 51.0282 0.524946 50.9 0.40009C50.6451 0.146058 50.2999 0.00341797 49.94 0.00341797C49.5802 0.00341797 49.2349 0.146058 48.98 0.40009L25.56 23.8201L2.82003 1.08009C2.56077 0.849685 2.22328 0.727042 1.87658 0.737248C1.52989 0.747454 1.20019 0.889737 0.954933 1.13499C0.709676 1.38025 0.567393 1.70995 0.557187 2.05664C0.546981 2.40334 0.669624 2.74083 0.900029 3.00009L23.64 25.7401L0.900029 48.4801C0.645997 48.735 0.503357 49.0802 0.503357 49.4401C0.503357 49.8 0.645997 50.1452 0.900029 50.4001C1.02923 50.5333 1.18507 50.6378 1.35738 50.7067C1.52969 50.7756 1.71459 50.8075 1.90003 50.8001C2.08547 50.8075 2.27037 50.7756 2.44268 50.7067C2.61499 50.6378 2.77083 50.5333 2.90003 50.4001L25.56 27.6601L48.98 51.0801C49.1107 51.2113 49.2668 51.3145 49.4387 51.3833C49.6107 51.4521 49.7949 51.485 49.98 51.4801C50.1655 51.4875 50.3504 51.4556 50.5227 51.3867C50.695 51.3178 50.8508 51.2133 50.98 51.0801C51.1082 50.9552 51.2101 50.806 51.2797 50.6411C51.3493 50.4762 51.3852 50.2991 51.3852 50.1201C51.3852 49.9411 51.3493 49.764 51.2797 49.5991C51.2101 49.4342 51.1082 49.2849 50.98 49.1601L27.5 25.7401Z" fill="white" />
</svg>
