<svg width="80" height="108" viewBox="0 0 80 108" fill="none" xmlns="http://www.w3.org/2000/svg">
<path d="M68.9101 11.06C62.6001 2.76 50.9901 0 39.9101 0C28.8301 0 17.2301 2.76 10.9101 11.06C4.5901 19.35 0.350098 29.23 0.350098 51.68C0.350098 74.13 3.3801 85.32 9.3901 94.27C15.4001 103.22 26.6201 107.2 39.9101 107.2C53.2001 107.2 64.4201 103.23 70.4301 94.27C76.4401 85.32 79.4701 74.13 79.4701 51.68C79.4701 29.23 75.2201 19.36 68.9101 11.06Z" fill="#0082FC"/>
<path d="M64.1202 35.25L36.5102 7.52002V44.15L21.1902 28.83L15.7202 34.3L35.0202 53.6L15.7202 72.9L21.1902 78.37L36.5102 63.05V99.68L64.1202 71.95L45.8402 53.6L64.1202 35.25ZM44.2402 26.26L53.1902 35.25L44.2402 44.24V26.26ZM44.2402 80.94V62.96L53.1902 71.95L44.2402 80.94Z" fill="white"/>
</svg>
