<svg width="53" height="52" viewBox="0 0 53 52" fill="none" xmlns="http://www.w3.org/2000/svg">
<path d="M11.74 33.1299C11.34 33.1299 10.96 32.8899 10.8 32.4899C8 25.4299 10.3 17.3299 16.4 12.7899C23.84 7.24989 34.4 8.78991 39.94 16.2399C40.27 16.6899 40.18 17.3199 39.73 17.6499C39.28 17.9799 38.65 17.8899 38.32 17.4399C33.44 10.8899 24.15 9.5299 17.6 14.4099C12.23 18.4099 10.21 25.5399 12.67 31.7499C12.88 32.2699 12.62 32.8499 12.11 33.0599C11.99 33.1099 11.86 33.1299 11.74 33.1299Z" fill="white" stroke="white" stroke-width="0.93" stroke-miterlimit="10"/>
<path d="M26.4802 43.1199C25.6602 43.1199 24.8302 43.0599 24.0102 42.9399C19.5602 42.2899 15.6402 39.9499 12.9502 36.3399C12.6202 35.8899 12.7102 35.2599 13.1602 34.9299C13.6102 34.5999 14.2402 34.6899 14.5702 35.1399C16.9302 38.3099 20.3902 40.3799 24.3002 40.9499C28.2202 41.5199 32.1202 40.5399 35.2902 38.1699C40.5802 34.2299 42.6402 27.1699 40.2902 21.0199C40.0902 20.4999 40.3502 19.9199 40.8702 19.7199C41.3902 19.5199 41.9702 19.7799 42.1702 20.2999C44.8402 27.2999 42.5102 35.3099 36.4902 39.7899C33.5602 41.9799 30.0702 43.1199 26.4802 43.1199Z" fill="white" stroke="white" stroke-width="0.93" stroke-miterlimit="10"/>
<path d="M13.6999 41.4199C13.1399 41.4199 12.6899 40.9699 12.6899 40.4099V35.7599C12.6899 35.1999 13.1399 34.7499 13.6999 34.7499H18.3499C18.9099 34.7499 19.3599 35.1999 19.3599 35.7599C19.3599 36.3199 18.9099 36.7699 18.3499 36.7699H14.7099V40.4099C14.7099 40.9699 14.2599 41.4199 13.6999 41.4199Z" fill="white" stroke="white" stroke-width="0.93" stroke-miterlimit="10"/>
<path d="M39.2801 18H34.6301C34.0701 18 33.6201 17.55 33.6201 16.99C33.6201 16.43 34.0701 15.9799 34.6301 15.9799H38.2701V12.34C38.2701 11.78 38.7201 11.33 39.2801 11.33C39.8401 11.33 40.2901 11.78 40.2901 12.34V16.99C40.2901 17.55 39.8401 18 39.2801 18Z" fill="white" stroke="white" stroke-width="0.93" stroke-miterlimit="10"/>
<path d="M26.3499 51.72C21.7299 51.72 17.0599 50.48 12.8399 47.88C6.99991 44.28 2.91991 38.61 1.33991 31.91C-0.24009 25.22 0.87991 18.32 4.48991 12.48C8.09991 6.62995 13.7699 2.53996 20.4499 0.959964C27.1399 -0.620036 34.0399 0.489954 39.8799 4.08995C51.9699 11.55 55.7399 27.44 48.2899 39.52C43.4299 47.39 34.9799 51.72 26.3399 51.72H26.3499ZM26.4299 2.65996C24.6299 2.65996 22.8099 2.86996 21.0099 3.29996C14.9499 4.73996 9.80991 8.44996 6.53991 13.74C3.26991 19.04 2.25991 25.29 3.67991 31.36C5.10991 37.42 8.80991 42.56 14.0999 45.83C25.0599 52.59 39.4699 49.19 46.2299 38.25C52.9799 27.31 49.5599 12.9 38.6099 6.13996C34.8899 3.83996 30.6999 2.65996 26.4299 2.65996Z" fill="#FFA205"/>
</svg>
