<svg width="85" height="86" viewBox="0 0 85 86" fill="none" xmlns="http://www.w3.org/2000/svg">
<path d="M37.75 85.3498L23.15 80.9398L25.82 67.9398C24.2722 66.8941 22.8259 65.7056 21.5 64.3898L9.30004 69.5598L2.07004 56.1198L13.13 48.8398C12.7636 46.9888 12.576 45.1068 12.57 43.2198L0.290039 38.2198L4.70004 23.6598L17.7 26.3298C18.7429 24.7768 19.9316 23.3269 21.25 21.9998L16.08 9.7998L29.5 2.56981L36.79 13.6298C38.6388 13.2721 40.517 13.088 42.4 13.0798L47.4 0.799805L61.99 5.2098L59.33 18.2098C60.8893 19.2601 62.3458 20.4554 63.68 21.7798L75.89 16.6098L83.07 29.9998L72.01 37.3198C72.3715 39.1682 72.559 41.0464 72.57 42.9298L84.85 47.9298L80.44 62.5198L67.5 59.8198C66.4473 61.3803 65.2522 62.8399 63.93 64.1798L69.1 76.3798L55.66 83.5798L48.33 72.5198C46.482 72.8825 44.6033 73.0666 42.72 73.0698L37.75 85.3498ZM26.26 79.0898L36.19 82.0898L40.94 70.3698H41.86C44.1397 70.4304 46.4178 70.2019 48.64 69.6898L49.55 69.4898L56.55 80.0498L65.7 75.1498L60.72 63.5298L61.39 62.8998C63.0416 61.324 64.4925 59.5507 65.71 57.6198L66.2 56.8398L78.59 59.3898L81.59 49.4598L69.87 44.7098V43.7798C69.9388 41.5015 69.7205 39.2236 69.22 36.9998L69.01 36.0998L79.57 29.0998L74.67 19.9998L63.03 24.9298L62.39 24.2598C60.8229 22.603 59.0521 21.1515 57.12 19.9398L56.34 19.4498L58.88 7.0598L48.95 4.0598L44.2 15.7798H43.28C40.9972 15.7214 38.716 15.9498 36.49 16.4598L35.59 16.6598L28.59 6.09981L19.5 10.9998L24.43 22.6498L23.76 23.2798C22.1034 24.8508 20.6519 26.6249 19.44 28.5598L18.95 29.3398L6.55004 26.7598L3.55004 36.6998L15.27 41.4398V42.3598C15.2107 44.6427 15.4391 46.924 15.95 49.1498L16.15 50.0498L5.57004 56.9998L10.5 66.1598L22.15 61.2198L22.79 61.8998C24.3601 63.5535 26.1305 65.0047 28.06 66.2198L28.84 66.7098L26.26 79.0898ZM42.56 59.5098C40.9512 59.507 39.3513 59.2713 37.81 58.8098C33.8324 57.6108 30.4557 54.9511 28.3582 51.365C26.2607 47.7789 25.5977 43.532 26.5025 39.4772C27.4073 35.4225 29.8128 31.8602 33.2358 29.506C36.6589 27.1518 40.8459 26.1799 44.956 26.7856C49.0661 27.3913 52.7947 29.5297 55.3931 32.7713C57.9915 36.0129 59.2671 40.1176 58.9638 44.261C58.6604 48.4044 56.8005 52.2795 53.7577 55.1081C50.7149 57.9367 46.7145 59.5092 42.56 59.5098ZM42.56 29.2998C40.0092 29.3018 37.509 30.0123 35.3384 31.3521C33.1677 32.6918 31.4119 34.6082 30.2666 36.8875C29.1214 39.1668 28.6318 41.7195 28.8524 44.2607C29.073 46.802 29.9952 49.2321 31.5161 51.2799C33.037 53.3278 35.0968 54.9129 37.4659 55.8586C39.8349 56.8042 42.4201 57.0733 44.9331 56.6356C47.4462 56.198 49.7882 55.071 51.6982 53.3801C53.6082 51.6893 55.0109 49.5012 55.75 47.0598C56.3727 45.0032 56.5054 42.8294 56.1375 40.7124C55.7696 38.5953 54.9114 36.5937 53.6315 34.8677C52.3515 33.1417 50.6854 31.7392 48.7664 30.7724C46.8475 29.8056 44.7288 29.3012 42.58 29.2998H42.56Z" fill="#FFA205"/>
</svg>
