<svg width="200" height="200" viewBox="0 0 200 200" fill="none" xmlns="http://www.w3.org/2000/svg">
<path d="M99.6017 199.999C79.8407 199.92 60.5461 193.989 44.1537 182.953C27.7612 171.917 15.006 156.272 7.49826 137.992C-0.00946457 119.713 -1.93306 99.619 1.97033 80.2472C5.87371 60.8754 15.4291 43.0944 29.43 29.149C43.431 15.2035 61.2499 5.71893 80.637 1.89258C100.024 -1.93377 120.11 0.069689 138.36 7.65001C156.609 15.2303 172.204 28.0477 183.174 44.4838C194.145 60.92 200 80.2381 200 99.9992C199.976 113.158 197.359 126.183 192.3 138.331C187.241 150.478 179.839 161.51 170.515 170.796C161.192 180.083 150.131 187.441 137.964 192.452C125.796 197.463 112.761 200.027 99.6017 199.999ZM99.6017 5.62857C80.953 5.70203 62.7441 11.2992 47.2739 21.7133C31.8037 32.1274 19.7658 46.8917 12.6801 64.142C5.59437 81.3923 3.77848 100.355 7.46166 118.637C11.1448 136.918 20.162 153.699 33.3746 166.86C46.5873 180.02 63.4031 188.972 81.699 192.583C99.9949 196.194 118.951 194.304 136.173 187.15C153.395 179.997 168.112 167.901 178.465 152.39C188.818 136.879 194.344 118.648 194.344 99.9992C194.323 87.5809 191.856 75.2884 187.082 63.824C182.309 52.3596 175.324 41.9481 166.526 33.1843C157.727 24.4204 147.288 17.4761 135.805 12.748C124.322 8.01985 112.02 5.60064 99.6017 5.62857ZM114.286 163.17H80.9347V157.859H114.286C115.347 157.838 116.357 157.4 117.098 156.64C117.838 155.879 118.249 154.858 118.242 153.796C118.227 152.852 117.877 151.944 117.255 151.234C116.632 150.524 115.778 150.058 114.843 149.92L55.2576 141.954H54.1955C52.0827 141.954 50.0566 142.793 48.5626 144.287C47.0687 145.781 46.2295 147.807 46.2295 149.92C46.2295 152.032 47.0687 154.058 48.5626 155.552C50.0566 157.046 52.0827 157.886 54.1955 157.886H64.8168V163.196H54.1955C51.0276 162.704 48.1401 161.095 46.0544 158.66C43.9688 156.226 42.8224 153.125 42.8224 149.92C42.8224 146.714 43.9688 143.613 46.0544 141.179C48.1401 138.744 51.0276 137.135 54.1955 136.643C54.7962 136.59 55.4004 136.59 56.0011 136.643L115.56 144.609C117.969 144.851 120.188 146.021 121.749 147.871C123.31 149.721 124.091 152.105 123.925 154.52C123.76 156.935 122.661 159.19 120.862 160.81C119.063 162.429 116.705 163.285 114.286 163.196V163.17Z" fill="#008278"/>
<path d="M79.2906 157.834H84.1499L84.0968 163.171H79.2641V158.338L79.2906 157.834ZM145.037 163.171H114.288V157.86H145.037C147.149 157.86 149.176 157.021 150.67 155.527C152.163 154.033 153.003 152.007 153.003 149.894C153.003 147.782 152.163 145.755 150.67 144.262C149.176 142.768 147.149 141.928 145.037 141.928H143.975L99.9757 147.744L99.2587 142.433L143.258 136.565C143.85 136.512 144.445 136.512 145.037 136.565C148.205 137.057 151.092 138.666 153.178 141.1C155.263 143.535 156.41 146.635 156.41 149.841C156.41 153.047 155.263 156.147 153.178 158.582C151.092 161.017 148.205 162.626 145.037 163.118V163.171ZM70.1562 141.318L76.6353 91.3442L81.9459 92.0346L75.4669 141.982L70.1562 141.318Z" fill="#008278"/>
<path d="M51.3561 142.221L44.7708 143.841L44.0273 141.185L66.1728 122.147C66.5355 121.84 66.8411 121.471 67.0757 121.058L74.192 108.551L78.6795 111.207L71.5632 123.74C71.0711 124.696 70.4046 125.551 69.5982 126.262L51.3561 142.221ZM99.6301 64.6852C95.4175 64.6437 91.3892 62.9518 88.4103 59.9729C85.4315 56.9941 83.7396 52.9658 83.6981 48.7532V40.7872C83.6981 36.5371 85.3864 32.4611 88.3917 29.4558C91.3969 26.4505 95.4729 24.7622 99.723 24.7622C103.973 24.7622 108.049 26.4505 111.054 29.4558C114.06 32.4611 115.748 36.5371 115.748 40.7872V48.7532C115.713 52.9679 114.024 57.0001 111.043 59.9805C108.063 62.9608 104.031 64.6505 99.816 64.6852H99.6301ZM99.6301 30.1658C96.8131 30.1658 94.1115 31.2849 92.1197 33.2767C90.1278 35.2686 89.0087 37.9702 89.0087 40.7872V48.7532C89.0087 51.5701 90.1278 54.2717 92.1197 56.2636C94.1115 58.2555 96.8131 59.3745 99.6301 59.3745C102.447 59.3745 105.149 58.2555 107.141 56.2636C109.132 54.2717 110.251 51.5701 110.251 48.7532V40.7872C110.251 37.9702 109.132 35.2686 107.141 33.2767C105.149 31.2849 102.447 30.1658 99.6301 30.1658Z" fill="#008278"/>
<path d="M42.1629 147.185C40.2528 147.21 38.3814 146.646 36.8034 145.569C35.2255 144.492 34.0177 142.955 33.3444 141.168C32.6712 139.38 32.5651 137.428 33.0407 135.578C33.5163 133.728 34.5505 132.069 36.0025 130.828L54.5898 114.631L68.371 80.3768C69.317 77.9782 70.7883 75.8221 72.6769 74.0668C74.5654 72.3115 76.8232 71.0016 79.2845 70.2334L86.9584 67.817L90.9945 59.373L95.8272 61.6566L90.7821 72.278L80.9308 75.4113C79.2406 75.9374 77.6867 76.8285 76.379 78.0215C75.0713 79.2145 74.0417 80.6803 73.3631 82.3152L59.1039 117.764L39.5075 134.864C38.8187 135.522 38.3881 136.404 38.2938 137.351C38.1995 138.299 38.4478 139.249 38.9936 140.029C39.5394 140.809 40.3467 141.368 41.2691 141.604C42.1914 141.841 43.1679 141.739 44.0216 141.317L46.6769 145.804C45.3187 146.651 43.7623 147.127 42.1629 147.185ZM117.681 92.6975L122.991 92.0071L129.47 141.954L124.16 142.644L117.681 92.6975Z" fill="#008278"/>
<path d="M147.933 142.219L129.611 126.287C128.757 125.542 128.054 124.641 127.54 123.632L120.477 111.178L124.964 108.523L132.001 121.136C132.219 121.56 132.527 121.932 132.904 122.224L155.235 141.449L154.332 143.308L147.933 142.219Z" fill="#008278"/>
<path d="M157.037 147.345C155.456 147.288 153.915 146.841 152.549 146.044L155.204 141.556C155.68 141.78 156.195 141.907 156.72 141.93C157.245 141.954 157.77 141.873 158.263 141.693C158.757 141.512 159.21 141.236 159.597 140.88C159.983 140.524 160.295 140.095 160.515 139.618C160.868 138.874 160.978 138.038 160.831 137.228C160.683 136.418 160.285 135.675 159.692 135.104L140.096 118.03L125.863 82.475C125.195 80.8098 124.164 79.3144 122.846 78.0972C121.528 76.8801 119.955 75.9718 118.242 75.4384L108.391 72.3051L103.346 61.8165L108.099 59.5063L112.135 67.9503L119.809 70.3667C122.271 71.1383 124.531 72.4491 126.424 74.2037C128.316 75.9583 129.794 78.1127 130.749 80.5101L144.503 114.764L163.091 130.961C164.036 131.763 164.812 132.746 165.373 133.851C165.933 134.957 166.268 136.163 166.357 137.399C166.446 138.635 166.288 139.877 165.891 141.051C165.494 142.226 164.867 143.309 164.047 144.238C163.156 145.247 162.06 146.055 160.834 146.609C159.607 147.163 158.276 147.45 156.93 147.451L157.037 147.345Z" fill="#008278"/>
</svg>
