<svg width="200" height="200" viewBox="0 0 200 200" fill="none" xmlns="http://www.w3.org/2000/svg">
<path d="M123.473 157.116C119.985 157.117 116.55 156.268 113.463 154.643C110.376 153.018 107.732 150.666 105.758 147.791C103.784 144.915 102.54 141.602 102.134 138.137C101.728 134.673 102.171 131.162 103.426 127.907C103.568 127.536 103.783 127.196 104.057 126.908C104.332 126.62 104.66 126.388 105.024 126.227C105.387 126.065 105.779 125.977 106.177 125.967C106.575 125.957 106.971 126.025 107.342 126.168C107.714 126.311 108.053 126.526 108.341 126.8C108.63 127.074 108.861 127.402 109.023 127.766C109.184 128.13 109.273 128.522 109.283 128.92C109.293 129.317 109.224 129.713 109.081 130.085C108.394 131.854 108.042 133.736 108.046 135.634C108.046 138.686 108.951 141.668 110.646 144.205C112.341 146.742 114.75 148.72 117.569 149.887C120.388 151.055 123.49 151.361 126.483 150.765C129.476 150.17 132.225 148.701 134.382 146.543C136.54 144.386 138.009 141.637 138.604 138.644C139.2 135.651 138.894 132.549 137.726 129.73C136.559 126.911 134.581 124.502 132.044 122.807C129.507 121.112 126.525 120.207 123.473 120.207L44.3708 120.472C43.568 120.472 42.798 120.153 42.2304 119.586C41.6627 119.018 41.3438 118.248 41.3438 117.445C41.3438 116.642 41.6627 115.872 42.2304 115.305C42.798 114.737 43.568 114.418 44.3708 114.418L123.473 114.179C129.171 114.179 134.635 116.442 138.663 120.471C142.692 124.5 144.955 129.964 144.955 135.661C144.955 141.358 142.692 146.822 138.663 150.851C134.635 154.879 129.171 157.143 123.473 157.143V157.116Z" fill="#7B62E7"/>
<path d="M155.017 105.922L23.1267 105.657C22.3239 105.657 21.5539 105.338 20.9862 104.77C20.4185 104.202 20.0996 103.433 20.0996 102.63C20.0996 101.827 20.4185 101.057 20.9862 100.489C21.5539 99.9215 22.3239 99.6026 23.1267 99.6026L155.017 99.8681C158.341 99.8571 161.572 98.7691 164.226 96.7672C166.879 94.7653 168.812 91.9573 169.736 88.7642C170.659 85.571 170.522 82.1646 169.347 79.0555C168.171 75.9464 166.019 73.3021 163.214 71.519C160.409 69.7358 157.101 68.9097 153.787 69.1647C150.473 69.4196 147.331 70.7418 144.831 72.933C142.332 75.1242 140.61 78.0665 139.923 81.3188C139.237 84.5711 139.623 87.9583 141.024 90.9727C141.376 91.6981 141.425 92.5336 141.161 93.2955C140.897 94.0574 140.342 94.6833 139.616 95.0354C139.257 95.2098 138.867 95.3117 138.469 95.3353C138.07 95.3589 137.671 95.3038 137.294 95.1732C136.532 94.9092 135.906 94.3534 135.554 93.6281C134.214 90.7792 133.525 87.6682 133.536 84.5203C133.536 80.2716 134.795 76.1183 137.156 72.5857C139.516 69.053 142.871 66.2997 146.797 64.6738C150.722 63.0479 155.041 62.6225 159.208 63.4513C163.375 64.2802 167.203 66.3262 170.207 69.3304C173.211 72.3347 175.257 76.1624 176.086 80.3294C176.915 84.4964 176.49 88.8157 174.864 92.741C173.238 96.6662 170.485 100.021 166.952 102.382C163.419 104.742 159.266 106.002 155.017 106.002V105.922Z" fill="#7B62E7"/>
<path d="M102.708 91.8745L44.2908 91.609C43.4879 91.609 42.718 91.2901 42.1503 90.7224C41.5826 90.1547 41.2637 89.3847 41.2637 88.5819C41.2637 87.7791 41.5826 87.0091 42.1503 86.4414C42.718 85.8737 43.4879 85.5548 44.2908 85.5548L102.708 85.8203C105.758 85.8151 108.738 84.9058 111.272 83.2074C113.806 81.5091 115.779 79.0978 116.942 76.2783C118.106 73.4588 118.408 70.3577 117.809 67.3668C117.211 64.3759 115.74 61.6295 113.581 59.4746C111.422 57.3197 108.674 55.853 105.682 55.2598C102.69 54.6667 99.5891 54.9738 96.7716 56.1422C93.9542 57.3107 91.5463 59.2881 89.8523 61.8245C88.1582 64.361 87.2541 67.3427 87.2541 70.3928C87.263 72.6846 87.7894 74.9448 88.7942 77.0046C89.1463 77.73 89.1959 78.5655 88.9319 79.3274C88.668 80.0893 88.1122 80.7152 87.3869 81.0673C86.6615 81.4194 85.826 81.469 85.0641 81.205C84.3022 80.9411 83.6763 80.3853 83.3242 79.66C81.9272 76.7714 81.2096 73.6015 81.2265 70.3928C81.2265 66.1442 82.4864 61.9909 84.8468 58.4582C87.2072 54.9256 90.5622 52.1722 94.4875 50.5463C98.4127 48.9204 102.732 48.495 106.899 49.3239C111.066 50.1528 114.894 52.1987 117.898 55.203C120.902 58.2073 122.948 62.0349 123.777 66.202C124.606 70.369 124.181 74.6883 122.555 78.6135C120.929 82.5388 118.175 85.8938 114.643 88.2542C111.11 90.6146 106.957 91.8745 102.708 91.8745Z" fill="#7B62E7"/>
<path d="M99.8141 200C80.044 199.963 60.7283 194.067 44.3079 183.057C27.8874 172.046 15.0991 156.415 7.55885 138.14C0.0185797 119.864 -1.93525 99.763 1.94423 80.3772C5.82372 60.9913 15.3624 43.1904 29.355 29.2238C43.3477 15.2571 61.1662 5.75145 80.5593 1.90796C99.9523 -1.93552 120.049 0.0556403 138.311 7.62984C156.573 15.204 172.18 28.0214 183.16 44.4622C194.14 60.9031 200 80.2297 200 99.9999C199.99 113.145 197.39 126.159 192.349 138.299C187.308 150.439 179.925 161.467 170.622 170.753C161.318 180.039 150.276 187.402 138.127 192.42C125.978 197.438 112.959 200.014 99.8141 200ZM99.8141 5.62919C81.1562 5.66069 62.9263 11.2222 47.4281 21.6109C31.9299 31.9996 19.859 46.7493 12.7407 63.9961C5.62243 81.2428 3.77629 100.213 7.43558 118.508C11.0949 136.804 20.0953 153.604 33.2996 166.786C46.5039 179.968 63.3194 188.94 81.6212 192.569C99.9229 196.197 118.89 194.319 136.124 187.172C153.359 180.024 168.088 167.929 178.451 152.413C188.813 136.897 194.344 118.658 194.344 99.9999C194.316 74.9523 184.342 50.9409 166.616 33.2445C148.89 15.5481 124.862 5.61509 99.8141 5.62919Z" fill="#7B62E7"/>
</svg>
