<svg width="52" height="52" viewBox="0 0 52 52" fill="none" xmlns="http://www.w3.org/2000/svg">
<path d="M25.8499 51.72C21.2299 51.72 16.5599 50.48 12.3399 47.88C6.49992 44.28 2.41992 38.61 0.839918 31.91C-0.740082 25.22 0.379881 18.32 3.98988 12.48C7.59988 6.62995 13.2699 2.53996 19.9499 0.959964C26.6399 -0.620036 33.5399 0.489954 39.3799 4.08995C51.4699 11.55 55.2399 27.44 47.7899 39.52C42.9299 47.39 34.4799 51.72 25.8399 51.72H25.8499ZM25.9299 2.65996C24.1299 2.65996 22.3099 2.86996 20.5099 3.29996C14.4499 4.73996 9.30987 8.44996 6.03987 13.74C2.76987 19.04 1.75988 25.29 3.17988 31.36C4.60988 37.42 8.30987 42.56 13.5999 45.83C24.5599 52.59 38.9699 49.19 45.7299 38.25C52.4799 27.31 49.0599 12.9 38.1099 6.13996C34.3899 3.83996 30.1999 2.65996 25.9299 2.65996Z" fill="#FFA205"/>
<path d="M23.8398 16.0599C23.2898 15.5099 23.0098 14.8399 23.0098 14.0699C23.0098 13.2999 23.2898 12.6899 23.8398 12.1299C24.3898 11.5799 25.0798 11.2999 25.8898 11.2999C26.6998 11.2999 27.3798 11.5699 27.9398 12.0999C28.4898 12.6399 28.7698 13.2699 28.7698 14.0099C28.7698 14.8199 28.4898 15.4999 27.9398 16.0599C27.3898 16.6099 26.6998 16.8899 25.8898 16.8899C25.0798 16.8899 24.3998 16.6099 23.8398 16.0599Z" fill="white"/>
<path d="M28.7598 20.46H23.0098V40.67H28.7598V20.46Z" fill="white"/>
</svg>
