<svg width="620" height="716" viewBox="0 0 620 716" fill="none" xmlns="http://www.w3.org/2000/svg">
<g opacity="0.3">
<path opacity="0.2" d="M2 179.896L617.888 535.482" stroke="white" stroke-width="2" stroke-miterlimit="10"/>
<path opacity="0.2" d="M309.944 2.10352L617.888 179.896V535.482L309.944 713.266L2 535.482V179.896L309.944 2.10352Z" stroke="white" stroke-width="2" stroke-miterlimit="10"/>
<path opacity="0.2" d="M309.944 2.10352L617.888 535.482H2L309.944 2.10352Z" stroke="white" stroke-width="2" stroke-miterlimit="10"/>
<path opacity="0.2" d="M309.944 713.249L617.888 179.879H2L309.944 713.249Z" stroke="white" stroke-width="2" stroke-miterlimit="10"/>
<path opacity="0.2" d="M2.11182 179.793L618 535.379" stroke="white" stroke-width="2" stroke-miterlimit="10"/>
<path opacity="0.2" d="M618 179.793L2.11182 535.379" stroke="white" stroke-width="2" stroke-miterlimit="10"/>
<path opacity="0.2" d="M310.056 2L618 179.793V535.378L310.056 713.162L2.11182 535.378V179.793L310.056 2Z" stroke="white" stroke-width="2" stroke-miterlimit="10"/>
<path opacity="0.2" d="M310.056 2L618 535.378H2.11182L310.056 2Z" stroke="white" stroke-width="2" stroke-miterlimit="10"/>
<path opacity="0.2" d="M310.056 713.145L618 179.775H2.11182L310.056 713.145Z" stroke="white" stroke-width="2" stroke-miterlimit="10"/>
</g>
</svg>
