<svg width="68" height="76" viewBox="0 0 68 76" fill="none" xmlns="http://www.w3.org/2000/svg">
<g clip-path="url(#clip0_805_5081)">
<path d="M64.0081 31.7613L10.9969 1.25523C9.93449 0.638918 8.72779 0.313057 7.49866 0.310561C6.26954 0.308065 5.06152 0.629022 3.99662 1.24101C2.93173 1.853 2.04768 2.73435 1.43377 3.79603C0.819854 4.85772 0.497827 6.06213 0.500211 7.28762V68.32C0.490634 69.5489 0.807421 70.7585 1.4184 71.8258C2.02938 72.8932 2.91278 73.7803 3.9789 74.3971C5.04501 75.0139 6.25586 75.3384 7.48846 75.3377C8.72106 75.3369 9.93151 75.011 10.9969 74.3929L64.0081 43.8463C65.0703 43.2326 65.952 42.3513 66.565 41.2908C67.1779 40.2303 67.5006 39.0278 67.5006 37.8038C67.5006 36.5798 67.1779 35.3773 66.565 34.3168C65.952 33.2563 65.0703 32.375 64.0081 31.7613Z" fill="#116031"/>
<path d="M8.50292 42.4007C7.86292 42.4007 7.25092 42.3047 6.66692 42.1127C6.08292 41.9127 5.62292 41.6567 5.28692 41.3447L5.73092 40.4087C6.05092 40.6887 6.45892 40.9207 6.95492 41.1047C7.45092 41.2887 7.96692 41.3807 8.50292 41.3807C8.99092 41.3807 9.38692 41.3247 9.69092 41.2127C9.99492 41.1007 10.2189 40.9487 10.3629 40.7567C10.5069 40.5567 10.5789 40.3327 10.5789 40.0847C10.5789 39.7967 10.4829 39.5647 10.2909 39.3887C10.1069 39.2127 9.86292 39.0727 9.55892 38.9687C9.26292 38.8567 8.93492 38.7607 8.57492 38.6807C8.21492 38.6007 7.85092 38.5087 7.48292 38.4047C7.12292 38.2927 6.79092 38.1527 6.48692 37.9847C6.19092 37.8167 5.95092 37.5927 5.76692 37.3127C5.58292 37.0247 5.49092 36.6567 5.49092 36.2087C5.49092 35.7767 5.60292 35.3807 5.82692 35.0207C6.05892 34.6527 6.41092 34.3607 6.88292 34.1447C7.36292 33.9207 7.97092 33.8087 8.70692 33.8087C9.19492 33.8087 9.67892 33.8727 10.1589 34.0007C10.6389 34.1287 11.0549 34.3127 11.4069 34.5527L11.0109 35.5127C10.6509 35.2727 10.2709 35.1007 9.87092 34.9967C9.47092 34.8847 9.08292 34.8287 8.70692 34.8287C8.23492 34.8287 7.84692 34.8887 7.54292 35.0087C7.23892 35.1287 7.01492 35.2887 6.87092 35.4887C6.73492 35.6887 6.66692 35.9127 6.66692 36.1607C6.66692 36.4567 6.75892 36.6927 6.94292 36.8687C7.13492 37.0447 7.37892 37.1847 7.67492 37.2887C7.97892 37.3927 8.31092 37.4887 8.67092 37.5767C9.03092 37.6567 9.39092 37.7487 9.75092 37.8527C10.1189 37.9567 10.4509 38.0927 10.7469 38.2607C11.0509 38.4287 11.2949 38.6527 11.4789 38.9327C11.6629 39.2127 11.7549 39.5727 11.7549 40.0127C11.7549 40.4367 11.6389 40.8327 11.4069 41.2007C11.1749 41.5607 10.8149 41.8527 10.3269 42.0767C9.84692 42.2927 9.23892 42.4007 8.50292 42.4007ZM12.236 42.3047L16.04 33.9047H17.228L21.044 42.3047H19.784L16.388 34.5767H16.868L13.472 42.3047H12.236ZM13.856 40.2047L14.18 39.2447H18.908L19.256 40.2047H13.856ZM22.2971 42.3047V33.9047H23.2811L27.0491 40.2527H26.5211L30.2411 33.9047H31.2251L31.2371 42.3047H30.0851L30.0731 35.7167H30.3491L27.0371 41.2847H26.4851L23.1491 35.7167H23.4491V42.3047H22.2971ZM33.758 42.3047V33.9047H37.034C37.77 33.9047 38.398 34.0207 38.918 34.2527C39.438 34.4847 39.838 34.8207 40.118 35.2607C40.398 35.7007 40.538 36.2247 40.538 36.8327C40.538 37.4407 40.398 37.9647 40.118 38.4047C39.838 38.8367 39.438 39.1727 38.918 39.4127C38.398 39.6447 37.77 39.7607 37.034 39.7607H34.418L34.958 39.1967V42.3047H33.758ZM34.958 39.3167L34.418 38.7167H36.998C37.766 38.7167 38.346 38.5527 38.738 38.2247C39.138 37.8967 39.338 37.4327 39.338 36.8327C39.338 36.2327 39.138 35.7687 38.738 35.4407C38.346 35.1127 37.766 34.9487 36.998 34.9487H34.418L34.958 34.3487V39.3167ZM42.301 42.3047V33.9047H43.501V41.2607H48.049V42.3047H42.301ZM50.518 37.5287H54.838V38.5487H50.518V37.5287ZM50.626 41.2607H55.522V42.3047H49.426V33.9047H55.354V34.9487H50.626V41.2607Z" fill="white"/>
</g>
<defs>
<clipPath id="clip0_805_5081">
<rect width="67" height="75" fill="white" transform="translate(0.5 0.304688)"/>
</clipPath>
</defs>
</svg>
