<svg width="139" height="139" viewBox="0 0 139 139" fill="none" xmlns="http://www.w3.org/2000/svg">
<path d="M69.5 139C31.1176 139 0 107.886 0 69.495C0 31.1036 31.1176 0 69.5 0C107.882 0 139 31.1136 139 69.495C138.97 107.866 107.862 138.96 69.5 138.99V139ZM69.5 3.91422C33.2861 3.91422 3.90719 33.2759 3.90719 69.495C3.90719 105.714 33.2861 135.086 69.5 135.086C105.714 135.086 135.093 105.724 135.093 69.495C135.043 33.2859 105.714 3.95427 69.5 3.90421V3.91422Z" fill="#008278"/>
<path d="M105.653 50.8357L95.4706 46.8514C94.5812 46.501 94.1415 45.4999 94.4913 44.6089L94.911 43.5378C95.1708 42.8771 95.6305 42.3165 96.23 41.926L109.59 33.3468L101.176 30.0532C100.537 29.803 100.227 29.0822 100.477 28.4415L100.797 27.6206C101.057 26.9599 101.806 26.6295 102.466 26.8898L113.288 31.1244C113.997 31.4047 114.347 32.2056 114.067 32.9163L113.468 34.458C113.318 34.8484 113.038 35.1888 112.688 35.419L98.6583 44.4287L107.012 47.7023C107.792 48.0126 108.181 48.8936 107.872 49.6744L107.782 49.9147C107.452 50.7556 106.513 51.166 105.673 50.8457L105.653 50.8357Z" fill="#008278"/>
<path d="M106.843 73.2378L99.4282 70.3247C98.3789 69.9142 97.8593 68.723 98.269 67.6718L98.5588 66.931C98.7187 66.5106 99.0185 66.1602 99.3982 65.9299L108.911 60.2438L103.785 58.2316C102.966 57.9113 102.566 56.9903 102.886 56.1694L103.086 55.6589C103.345 54.9981 104.085 54.6778 104.734 54.9381L112.739 58.0815C113.558 58.4018 113.968 59.3328 113.648 60.1537L113.358 60.9045C113.138 61.4551 112.749 61.9256 112.239 62.2259L102.686 67.9321L108.192 70.0944C108.881 70.3647 109.221 71.1456 108.951 71.8363L108.731 72.3969C108.442 73.1477 107.592 73.5181 106.833 73.2278L106.843 73.2378Z" fill="#008278"/>
<path d="M106.562 93.1711L100.457 90.7785C99.6675 90.4681 99.2777 89.5772 99.5775 88.7763L99.8573 88.0656C100.087 87.4649 100.517 86.9544 101.066 86.634L107.961 82.5196L104.364 81.108C103.725 80.8578 103.405 80.137 103.655 79.4963L103.984 78.6654C104.244 78.0147 104.974 77.6843 105.633 77.9446L112.238 80.5374C112.888 80.7977 113.218 81.5285 112.958 82.1892L112.598 83.1202C112.398 83.6308 112.029 84.0712 111.559 84.3515L104.364 88.6462L107.902 90.0277C108.641 90.318 109.011 91.1589 108.721 91.9097L108.571 92.3001C108.261 93.091 107.372 93.4814 106.582 93.1711H106.562Z" fill="#008278"/>
<path d="M56.5805 109.639C48.1465 109.639 36.7048 105.445 30.0695 85.4832C29.7398 84.4821 30.2794 83.4109 31.2687 83.0706C32.268 82.7402 33.3372 83.2808 33.677 84.2718C38.4335 98.5673 46.138 105.815 56.5805 105.815C67.023 105.815 74.7274 98.5673 79.484 84.2718C79.6938 83.6512 80.1935 83.1807 80.823 83.0305C81.0629 82.9704 86.9886 81.2986 86.9886 73.4502C86.9886 70.4069 84.8202 67.8241 81.8323 67.2935C70.1307 65.2213 59.5783 58.3639 52.8731 48.4932C52.2836 47.6223 52.5034 46.441 53.3728 45.8504C54.2422 45.2597 55.4213 45.48 56.0109 46.3509C62.1465 55.3807 71.7895 61.6474 82.4918 63.5495C87.2884 64.4004 90.7759 68.5549 90.7859 73.4301V73.4602C90.7859 81.2786 86.0093 85.1328 82.7716 86.3941C76.0864 105.575 64.8645 109.639 56.5705 109.639H56.5805Z" fill="#008278"/>
<path d="M31.8782 86.7842C31.7283 86.7842 31.5684 86.7641 31.4185 86.7241C28.2907 85.9432 22.375 82.1592 22.375 73.4498C22.375 68.5144 26.0623 64.3399 30.9488 63.7293C40.442 62.538 48.5462 56.4114 52.3135 47.6419C51.1243 45.83 50.0651 43.8879 49.1557 41.8657C48.726 40.9046 49.1557 39.7834 50.105 39.343C51.0644 38.9125 52.1836 39.343 52.6232 40.294C53.5925 42.4363 54.7417 44.4685 56.0308 46.3405C56.3905 46.8611 56.4705 47.5218 56.2406 48.1124C52.1436 58.6738 42.6404 66.1018 31.4285 67.5034C28.4406 67.8738 26.1823 70.4265 26.1823 73.4398C26.1823 81.2982 32.108 82.96 32.3578 83.0301C33.3771 83.2804 33.9866 84.3215 33.7368 85.3326C33.517 86.1935 32.7375 86.7741 31.8882 86.7741L31.8782 86.7842Z" fill="#008278"/>
<path d="M45.1581 104.303C45.178 103.252 44.3387 102.381 43.2894 102.371C42.2402 102.361 41.3708 103.192 41.3608 104.243C41.3108 107.136 41.081 109.619 40.7213 111.771C40.5214 112.943 41.4207 114.004 42.6099 113.994C43.5192 113.994 44.3087 113.333 44.4586 112.432C44.8583 110.079 45.1181 107.387 45.1681 104.303H45.1581Z" fill="#008278"/>
<path d="M68.1018 104.303C68.0818 103.252 68.9212 102.381 69.9704 102.371C71.0197 102.361 71.8891 103.192 71.8991 104.243C71.949 107.136 72.1789 109.619 72.5386 111.771C72.7385 112.943 71.8391 114.004 70.65 113.994C69.7406 113.994 68.9512 113.333 68.8013 112.432C68.4016 110.079 68.1418 107.387 68.0918 104.303H68.1018Z" fill="#008278"/>
<path d="M27.5113 68.9859C26.592 68.9859 25.7826 68.3152 25.6327 67.3742L25.6127 67.2741C25.5827 67.0738 25.5527 66.8836 25.5128 66.7034C25.5128 66.6734 25.5028 66.6534 25.5028 66.6234C24.6934 61.8782 24.2637 57.003 24.2637 52.5181C24.2637 44.5896 27.5513 37.8123 33.7868 32.927C39.6026 28.3721 47.6968 25.8594 56.5804 25.8594C65.464 25.8594 73.5582 28.3721 79.374 32.927C85.5995 37.8123 88.8972 44.5796 88.8972 52.5181C88.8972 58.5146 88.1577 63.8604 87.5381 67.2941C87.3483 68.3252 86.359 69.0159 85.3297 68.8257C84.3005 68.6355 83.611 67.6445 83.8008 66.6134C84.3904 63.3398 85.0999 58.2343 85.0999 52.5181C85.0999 39.0636 73.3783 29.6635 56.5904 29.6635C39.8025 29.6635 28.0809 39.0636 28.0809 52.5181C28.0809 56.7827 28.4906 61.4177 29.2601 65.9426C29.32 66.2129 29.36 66.4732 29.39 66.6934V66.7935C29.5599 67.8347 28.8504 68.8057 27.8111 68.9659C27.7112 68.9859 27.6113 68.9859 27.5213 68.9859H27.5113Z" fill="#008278"/>
<path d="M68.6806 78.9467C66.0724 78.9467 64.0339 77.8255 62.9747 76.8244C62.2852 76.2638 62.0553 75.2727 62.485 74.4519C62.9747 73.5208 64.1238 73.1705 65.0532 73.661H65.0732C65.253 73.7711 65.3829 73.8612 65.5228 74.0014C65.8626 74.3117 68.4807 76.5441 72.6377 73.7711C72.9475 73.5609 73.3172 73.4508 73.697 73.4508H75.5956C76.6448 73.4508 77.4942 74.3017 77.4942 75.3528C77.4942 76.404 76.6448 77.2549 75.5956 77.2549H74.2466C72.228 78.4862 70.3394 78.9367 68.6806 78.9367V78.9467Z" fill="#008278"/>
<path d="M44.4797 78.947C42.8209 78.947 40.9322 78.4966 38.9137 77.2652H37.5647C36.5154 77.2652 35.666 76.4143 35.666 75.3632C35.666 74.312 36.5154 73.4611 37.5647 73.4611H39.4633C39.843 73.4611 40.2028 73.5712 40.5225 73.7815C44.6695 76.5545 47.2976 74.3221 47.6374 74.0117C47.7773 73.8616 47.9072 73.7815 48.0871 73.6814H48.1071C49.0364 73.1808 50.1856 73.5312 50.6752 74.4622C51.1049 75.2831 50.8851 76.2742 50.1856 76.8348C49.1263 77.8258 47.0878 78.9571 44.4797 78.9571V78.947Z" fill="#008278"/>
<path d="M56.5806 98.1669C51.6242 98.1669 49.3758 96.435 48.7763 95.8644C47.9768 95.2237 47.8369 94.0525 48.4765 93.2416C49.116 92.4407 50.2852 92.3006 51.0846 92.9413L51.1645 93.0013C51.2745 93.0914 51.2945 93.0914 51.3744 93.1915C51.5743 93.3617 53.0132 94.4429 56.5906 94.4429C60.1681 94.4429 61.597 93.3617 61.8069 93.1915C61.8768 93.1014 61.9068 93.0914 62.0167 93.0013L62.0967 92.9413C62.8961 92.3006 64.0653 92.4307 64.7048 93.2416C65.3443 94.0425 65.2144 95.2137 64.405 95.8544C63.8054 96.425 61.5571 98.1669 56.6006 98.1669H56.5806Z" fill="#008278"/>
</svg>
