<svg width="200" height="200" viewBox="0 0 200 200" fill="none" xmlns="http://www.w3.org/2000/svg">
<path d="M100 199.989C44.7696 199.989 0 155.224 0 100C0 44.7761 44.7696 0 100 0C155.23 0 200 44.7761 200 100C199.957 155.203 155.198 199.947 100 200V199.989ZM100 5.629C47.8876 5.629 5.62946 47.8785 5.62946 100C5.62946 152.122 47.8983 194.371 100 194.371C152.102 194.371 194.371 152.122 194.371 100C194.296 47.9105 152.102 5.69296 100 5.629Z" fill="#006ABA"/>
<path d="M120.036 35.4265C116.343 31.0342 108.851 28.4116 99.9975 28.4116C91.1436 28.4116 83.6625 31.0342 79.9592 35.4265C77.8521 37.9319 75.8941 42.2389 78.5651 48.5609C78.8631 49.2645 79.4697 49.8295 80.2784 50.16C80.736 50.3413 81.2256 50.4372 81.7151 50.4372C82.0875 50.4372 82.4706 50.3839 82.8324 50.2773C84.567 49.7549 85.4822 48.1558 84.865 46.6952C83.4922 43.4436 83.6731 40.7464 85.4184 38.6781C87.866 35.7784 93.3145 34.0406 99.9975 34.0406C106.68 34.0406 112.129 35.7784 114.577 38.6781C116.322 40.7464 116.503 43.4436 115.13 46.6952C114.513 48.1558 115.428 49.7549 117.163 50.2773C117.524 50.3839 117.897 50.4372 118.28 50.4372C119.695 50.4372 120.962 49.6909 121.43 48.5715C124.101 42.2602 122.143 37.9425 120.036 35.4372V35.4265Z" fill="#006ABA"/>
<path d="M47.6281 95.6086C46.3618 94.4786 44.4037 94.8091 43.5098 96.259C40.3386 101.376 39.0509 107.25 39.4127 113.05C39.7746 118.85 41.7752 124.511 45.5636 129.201C46.6278 130.523 48.6072 130.609 49.7245 129.329C50.5972 128.338 50.6078 126.867 49.7777 125.833C46.7129 122.027 45.1699 117.41 44.8294 112.709C44.5952 108.103 45.553 103.253 48.1176 99.0735C48.8094 97.9434 48.6178 96.4935 47.6281 95.6086Z" fill="#006ABA"/>
<path d="M39.7228 88.6145C38.5203 87.5484 36.6473 87.7722 35.7428 89.0942C30.6773 96.4929 28.5916 105.203 29.113 113.689C29.6451 122.175 32.795 130.555 38.7331 137.271C39.7973 138.476 41.6808 138.455 42.745 137.25C43.6389 136.237 43.6283 134.713 42.7344 133.71C37.5944 127.911 34.8914 120.661 34.4551 113.359C33.9869 106.194 35.7747 98.5505 40.1484 92.1326C40.9146 91.0132 40.7231 89.51 39.7121 88.6145H39.7228Z" fill="#006ABA"/>
<path d="M152.365 95.6086C153.632 94.4786 155.59 94.8091 156.484 96.259C159.655 101.376 160.942 107.25 160.581 113.05C160.219 118.85 158.218 124.511 154.43 129.201C153.366 130.523 151.386 130.609 150.269 129.329C149.396 128.338 149.386 126.867 150.216 125.833C153.28 122.027 154.823 117.41 155.164 112.709C155.398 108.103 154.44 103.253 151.876 99.0735C151.184 97.9434 151.376 96.4935 152.365 95.6086Z" fill="#006ABA"/>
<path d="M160.273 88.6145C161.476 87.5484 163.349 87.7722 164.253 89.0942C169.319 96.4929 171.405 105.203 170.883 113.689C170.351 122.175 167.201 130.555 161.263 137.271C160.199 138.476 158.315 138.455 157.251 137.25C156.357 136.237 156.368 134.713 157.262 133.71C162.402 127.911 165.105 120.661 165.541 113.359C166.009 106.194 164.221 98.5505 159.848 92.1326C159.081 91.0132 159.273 89.51 160.284 88.6145H160.273Z" fill="#006ABA"/>
<path d="M99.9985 161.14C88.2713 161.14 72.362 155.309 63.125 127.548C62.6674 126.162 63.4123 124.658 64.7957 124.2C66.1792 123.742 67.6796 124.488 68.1372 125.874C74.7564 145.757 85.4726 155.842 99.9985 155.842C114.524 155.842 125.241 145.757 131.86 125.874C132.147 125.01 132.849 124.36 133.722 124.147C134.052 124.061 142.289 121.737 142.289 110.831C142.289 106.599 139.266 103.006 135.116 102.27C118.845 99.3813 104.17 89.8504 94.8373 76.119C94.0178 74.9144 94.3265 73.2619 95.5396 72.441C96.7421 71.6201 98.3916 71.9293 99.211 73.1446C107.746 85.7033 121.165 94.424 136.031 97.0572C142.704 98.2406 147.556 104.019 147.567 110.799V110.831C147.567 121.705 140.926 127.057 136.425 128.827C127.135 155.501 111.523 161.151 99.9878 161.151L99.9985 161.14Z" fill="#006ABA"/>
<path d="M65.6358 129.36C65.423 129.36 65.2102 129.338 64.9867 129.285C60.6342 128.198 52.4082 122.931 52.4082 110.831C52.4082 103.965 57.5375 98.1549 64.3375 97.3021C77.5439 95.6496 88.8028 87.1315 94.0491 74.9353C92.3997 72.4193 90.9205 69.7221 89.6541 66.9076C89.0476 65.575 89.6435 64.0078 90.9737 63.4001C92.3039 62.7925 93.8682 63.3895 94.4748 64.7221C95.8263 67.6965 97.4119 70.5323 99.2104 73.123C99.7105 73.8479 99.817 74.7648 99.4977 75.5856C93.8044 90.2765 80.5768 100.607 64.9973 102.558C60.8471 103.08 57.7078 106.63 57.6971 110.81C57.6971 121.737 65.9338 124.05 66.285 124.146C67.7003 124.498 68.5516 125.937 68.2005 127.355C67.9025 128.56 66.8171 129.36 65.6252 129.36H65.6358Z" fill="#006ABA"/>
<path d="M84.1092 153.72C84.1305 152.26 82.9706 151.055 81.5127 151.034C80.0441 151.023 78.8522 152.174 78.831 153.635C78.7671 157.654 78.4479 161.108 77.9371 164.104C77.6604 165.735 78.9054 167.217 80.5549 167.196C81.8213 167.185 82.9174 166.279 83.1302 165.021C83.6942 161.748 84.0454 158.006 84.1092 153.72Z" fill="#006ABA"/>
<path d="M116.024 153.72C116.002 152.26 117.162 151.055 118.62 151.034C120.089 151.023 121.281 152.174 121.302 153.635C121.366 157.654 121.685 161.108 122.196 164.104C122.473 165.735 121.228 167.217 119.578 167.196C118.312 167.185 117.216 166.279 117.003 165.021C116.439 161.748 116.088 158.006 116.024 153.72Z" fill="#006ABA"/>
<path d="M59.5715 104.595C58.2839 104.595 57.1665 103.657 56.9643 102.345L56.943 102.207C56.9005 101.93 56.8579 101.663 56.8047 101.418C56.8047 101.386 56.7941 101.343 56.7834 101.311C55.6554 94.7121 55.0488 87.921 55.0488 81.6844C55.0488 70.6502 59.6248 61.2259 68.2871 54.4349C76.3748 48.0916 87.6337 44.6055 99.9887 44.6055C112.344 44.6055 123.603 48.1023 131.69 54.4349C140.353 61.2259 144.929 70.6502 144.929 81.6844C144.929 90.0213 143.896 97.4626 143.034 102.228C142.779 103.667 141.396 104.627 139.959 104.36C138.522 104.104 137.565 102.718 137.831 101.279C138.661 96.7163 139.64 89.6161 139.64 81.6737C139.64 62.9637 123.337 49.8933 99.9887 49.8933C76.6408 49.8933 60.3378 62.9637 60.3378 81.6737C60.3378 87.6012 60.9018 94.0618 61.9872 100.352C62.0617 100.725 62.1149 101.087 62.1681 101.397L62.1894 101.535C62.4129 102.985 61.4232 104.328 59.9759 104.552C59.8376 104.573 59.6992 104.584 59.5715 104.584V104.595Z" fill="#006ABA"/>
<path d="M116.823 118.454C113.194 118.454 110.353 116.897 108.884 115.511C107.916 114.733 107.607 113.347 108.214 112.217C108.895 110.927 110.502 110.426 111.789 111.119L111.821 111.14C112.066 111.268 112.247 111.396 112.449 111.599C112.918 112.036 116.568 115.138 122.335 111.279C122.772 110.991 123.283 110.831 123.804 110.831H126.443C127.901 110.831 129.082 112.014 129.082 113.475C129.082 114.936 127.901 116.119 126.443 116.119H124.57C121.771 117.825 119.143 118.464 116.834 118.464L116.823 118.454Z" fill="#006ABA"/>
<path d="M83.1744 118.454C80.8651 118.454 78.2366 117.825 75.4379 116.108H73.5649C72.107 116.108 70.9258 114.925 70.9258 113.464C70.9258 112.004 72.107 110.821 73.5649 110.821H76.2041C76.7255 110.821 77.2363 110.98 77.6726 111.268C83.4404 115.128 87.1012 112.025 87.5587 111.588C87.7503 111.386 87.9312 111.258 88.1866 111.13L88.2185 111.108C89.5062 110.426 91.1131 110.917 91.7941 112.206C92.4007 113.347 92.0815 114.722 91.1237 115.501C89.6445 116.887 86.8138 118.443 83.185 118.443L83.1744 118.454Z" fill="#006ABA"/>
<path d="M99.9988 145.191C93.103 145.191 89.985 142.782 89.1443 141.982C88.0269 141.087 87.846 139.455 88.7292 138.336C89.6231 137.217 91.2407 137.035 92.3581 137.92L92.4645 138.006C92.6135 138.123 92.6454 138.134 92.7518 138.261C93.0391 138.496 95.0291 139.999 99.9988 139.999C104.968 139.999 106.958 138.496 107.246 138.261C107.352 138.134 107.384 138.123 107.533 138.006L107.64 137.92C108.757 137.025 110.385 137.217 111.268 138.336C112.162 139.455 111.971 141.087 110.853 141.971C110.013 142.771 106.895 145.18 99.9988 145.18V145.191Z" fill="#006ABA"/>
</svg>
